<?xml version="1.0" encoding="UTF-8" standalone="no"?>
<!-- Created with Inkscape (http://www.inkscape.org/) -->

<svg
   xmlns:dc="http://purl.org/dc/elements/1.1/"
   xmlns:cc="http://creativecommons.org/ns#"
   xmlns:rdf="http://www.w3.org/1999/02/22-rdf-syntax-ns#"
   xmlns:svg="http://www.w3.org/2000/svg"
   xmlns="http://www.w3.org/2000/svg"
   xmlns:sodipodi="http://sodipodi.sourceforge.net/DTD/sodipodi-0.dtd"
   xmlns:inkscape="http://www.inkscape.org/namespaces/inkscape"
   width="129.97023"
   height="100.87499"
   id="svg7366"
   version="1.1"
   inkscape:version="0.91 r13725"
   sodipodi:docname="shower.svg">
  <defs
     id="defs7368">
    <linearGradient
       id="XMLID_6_"
       y2="143.92"
       gradientUnits="userSpaceOnUse"
       x2="316.14999"
       gradientTransform="matrix(0.00926637,0,0,0.00573489,30.475597,40.096363)"
       y1="143.67999"
       x1="343.01001">
      <stop
         id="stop42"
         style="stop-color:#8d5c34"
         offset=".0048" />
      <stop
         id="stop44"
         style="stop-color:#93633b"
         offset=".1429" />
      <stop
         id="stop46"
         style="stop-color:#e8d0a9"
         offset=".29520" />
      <stop
         id="stop48"
         style="stop-color:#e3cba4"
         offset=".63810" />
      <stop
         id="stop50"
         style="stop-color:#93633a"
         offset=".93330" />
      <stop
         id="stop52"
         style="stop-color:#8d5c34"
         offset="1" />
    </linearGradient>
    <linearGradient
       id="XMLID_5_"
       y2="135.02"
       gradientUnits="userSpaceOnUse"
       x2="320.67001"
       gradientTransform="matrix(0.00926637,0,0,0.00573489,30.475597,40.096363)"
       y1="145.44"
       x1="22.266001">
      <stop
         id="stop31"
         style="stop-color:#8d5c34"
         offset="0" />
      <stop
         id="stop33"
         style="stop-color:#d1b38b"
         offset=".0333" />
      <stop
         id="stop35"
         style="stop-color:#e3cba4"
         offset=".91430" />
      <stop
         id="stop37"
         style="stop-color:#8d5c34"
         offset="1" />
    </linearGradient>
    <linearGradient
       id="XMLID_4_"
       y2="142.44"
       gradientUnits="userSpaceOnUse"
       x2="-0.0407"
       gradientTransform="matrix(0.00926637,0,0,0.00573489,30.475597,40.096363)"
       y1="141.78"
       x1="25.021">
      <stop
         id="stop18"
         style="stop-color:#8d5c34"
         offset=".1286" />
      <stop
         id="stop20"
         style="stop-color:#e8d0a9"
         offset=".29050" />
      <stop
         id="stop22"
         style="stop-color:#e3cba4"
         offset=".5952" />
      <stop
         id="stop24"
         style="stop-color:#8d5c34"
         offset="1" />
    </linearGradient>
  </defs>
  <sodipodi:namedview
     id="base"
     pagecolor="#ffffff"
     bordercolor="#666666"
     borderopacity="1.0"
     inkscape:pageopacity="0.0"
     inkscape:pageshadow="2"
     inkscape:zoom="0.98994949"
     inkscape:cx="348.55654"
     inkscape:cy="130.28582"
     inkscape:document-units="px"
     inkscape:current-layer="g18633"
     showgrid="false"
     inkscape:window-width="1303"
     inkscape:window-height="744"
     inkscape:window-x="63"
     inkscape:window-y="24"
     inkscape:window-maximized="1"
     fit-margin-top="0"
     fit-margin-left="0"
     fit-margin-right="0"
     fit-margin-bottom="0" />
  <metadata
     id="metadata7371">
    <rdf:RDF>
      <cc:Work
         rdf:about="">
        <dc:format>image/svg+xml</dc:format>
        <dc:type
           rdf:resource="http://purl.org/dc/dcmitype/StillImage" />
        <dc:title />
      </cc:Work>
    </rdf:RDF>
  </metadata>
  <g
     inkscape:label="Layer 1"
     inkscape:groupmode="layer"
     id="layer1"
     transform="translate(-26.44346,-667.63897)">
    <g
       style="display:inline;enable-background:new"
       id="SHOWER"
       transform="translate(-584.60982,380.28443)">
      <g
         id="g18633"
         transform="matrix(41.035853,0,0,63.448612,-637.94678,-2258.5576)">
        <g
           id="g13"
           transform="matrix(0.00926637,0,0,0.00573489,30.475597,40.096363)">
          <path
             inkscape:connector-curvature="0"
             id="path15"
             style="fill-rule:evenodd;stroke:#000000;stroke-width:0.036;stroke-miterlimit:10"
             d="m 11.466,283.57 c 2.268,0.36 4.68,0.36 7.632,0 2.88,-0.43 6.012,-1.11 9.54,-2.19 l 0.324,-3.82 c 3.42,-0.28 6.516,-0.39 9.864,-0.32 3.204,0.04 6.012,0.61 9.54,0.61 3.42,-0.22 8.208,-1.01 11.448,-1.26 3.276,-0.29 5.832,-0.4 7.956,-0.32 0.252,-0.58 0.252,-1.8 0,-3.82 -0.324,-2.12 -1.728,-5.9 -1.584,-8.28 0.18,-2.37 0.936,-4.28 2.556,-5.72 -0.72,2.05 -1.044,3.99 -0.972,5.43 0.036,1.41 0.792,1.41 1.296,3.5 0.468,2.08 0.756,5 1.26,8.89 3.096,0.03 6.552,0.25 10.512,0.65 3.888,0.39 7.308,1.62 13.032,1.58 5.616,-0.29 15.34,-2.16 20.99,-2.56 5.69,-0.39 9.75,-0.28 12.74,0.33 3.42,0.83 7.53,1.4 12.71,1.58 5.22,0.11 12.46,-0.32 17.82,-0.61 5.08,-0.47 7.2,-0.9 13.03,-1.3 5.8,-0.43 15.81,-0.97 21.96,-0.93 6.12,0.03 9.9,1.29 14.65,1.26 4.72,-0.11 9.04,-0.79 13.36,-1.91 0.29,-0.79 0.61,-1.98 1.26,-3.17 0.57,-1.29 1.84,-2.23 2.23,-4.46 0.29,-2.38 -0.61,-7.96 -0.32,-9.54 0.25,-1.66 0.64,-1.77 1.58,-0.33 -0.57,2.85 -0.47,5.3 0.32,7.64 0.76,2.26 3.07,4.28 4.14,6.04 0.9,1.8 -0.32,3.24 1.59,4.47 1.87,1.11 3.85,1.62 9.54,1.91 5.54,0.18 17.39,-0.51 23.87,-0.65 6.3,-0.29 8.6,-0.22 14.25,-0.61 5.65,-0.47 13.14,-1.91 19.41,-1.95 6.12,-0.14 11.95,0.29 17.49,1.3 l -0.32,5.72 c 2.99,2.49 6.23,3.6 9.86,3.49 3.57,-0.21 7.49,-1.65 11.77,-4.46 l 4.47,-274.54 0,0.004 C 342.09,5.044 340.86,4.72 338.74,4.252 336.51,3.784 333.38,3.388 329.2,2.668 l -1.91,-2.556 c -3.17,-0.072 -5.58,0.144 -7.63,0.647 -2.05,0.612 -3.49,1.332 -4.46,2.557 l 0.32,8.279 c -16.06,-0.252 -28.33,-0.684 -37.22,-1.296 -8.93,-0.576 -10.16,-2.16 -15.92,-2.231 -5.94,0.107 -13.53,1.872 -18.75,2.231 -5.19,0.396 -7.78,-0.071 -12.1,0 -4.46,0.181 -9.18,0.504 -14.29,0.973 -0.04,2.411 -0.25,4.428 -0.65,6.048 -0.5,1.655 -1.01,2.88 -1.91,3.815 0.62,-2.088 0.72,-4.104 0.33,-6.048 -0.51,-1.872 -1.33,-3.672 -2.88,-5.399 -5.98,-0.685 -11.7,-1.116 -17.17,-1.297 -5.66,-0.144 -10.73,-0.035 -15.92,0.324 0.62,1.836 0.83,3.528 0.65,5.076 -0.32,1.62 -1.51,2.412 -1.91,4.464 -0.39,2.196 -0.5,4.824 -0.32,8.28 -0.04,-0.72 -0.14,-1.584 -0.32,-2.88 -0.33,-1.188 -0.69,-2.809 -0.94,-4.428 -0.18,-1.477 0.18,-3.169 -0.32,-4.788 -0.69,-1.513 -0.83,-3.276 -3.5,-4.465 -2.8,-1.079 -8.02,-1.943 -12.74,-2.195 -4.82,-0.252 -12.13,-0.072 -15.26,0.936 -3.06,1.225 -1.48,6.013 -3.17,6.048 -1.77,0.072 -3.89,-4.752 -7.35,-5.724 -3.6,-0.9 -8.85,0.36 -13.68,0.324 -4.82,0.071 -9.75,0.071 -14.94,0 -0.97,1.332 -1.72,2.808 -2.55,4.428 -0.83,1.656 -1.3,5.544 -2.23,5.437 -1.192,-0.036 -3.532,-4.393 -3.82,-5.725 -0.18,-1.224 2.988,-0.756 2.556,-1.908 C 98.62,10.515 97.828,7.78 93.472,7.131 88.938,6.59 82.278,7.058 72.81,8.39 71.946,12.855 70.866,15.086 69.282,15.086 67.662,15.05 66.078,9.722 63.558,8.39 61.002,7.239 61.434,8.102 54.018,7.779 46.35,7.526 34.722,7.202 18.45,6.806 17.802,4.863 16.182,3.746 13.05,3.315 9.99,2.955 5.598,3.422 0.018,4.575 l 3.168,271.7 0,-0.01 c 1.62,1.01 3.24,1.62 4.464,2.23 1.188,0.5 2.376,0.83 3.168,0.97 0.216,1.37 0.432,2.74 0.648,4.1 z" />
        </g>
        <path
           inkscape:connector-curvature="0"
           id="path26"
           style="fill:url(#XMLID_4_);fill-rule:evenodd"
           d="m 30.507595,41.678339 c -9.88e-4,-0.201925 -0.003,-0.427191 -0.0073,-0.687726 -0.0043,-0.260765 -0.01034,-0.543822 -0.01801,-0.863616 l 0,3e-6 c 0.03102,-0.0078 0.05938,-0.01156 0.08639,-0.01114 0.02669,9.97e-4 0.0497,0.0062 0.07172,0.01548 l 0.100744,1.573594 c -0.01668,-0.005 -0.03536,-0.01015 -0.06104,-0.01548 -0.02602,-0.0045 -0.06105,-0.01405 -0.08973,-0.01571 -0.02868,-0.0021 -0.0567,0 -0.08272,0.0046 z" />
        <path
           inkscape:connector-curvature="0"
           id="path28"
           style="fill:#412318;fill-rule:evenodd"
           d="m 30.587318,41.716935 -0.01101,-0.02231 -0.04703,-0.01198 c 0.03502,-0.0066 0.06738,-0.0075 0.09974,-0.0033 0.03168,0.005 0.06204,0.01365 0.09106,0.02913 -0.02568,0.0079 -0.05004,0.01239 -0.07172,0.01365 -0.02302,0.0018 -0.04203,-6.18e-4 -0.06105,-0.0052 z" />
        <path
           inkscape:connector-curvature="0"
           id="path39"
           style="fill:url(#XMLID_5_);fill-rule:evenodd"
           d="m 30.742436,41.679315 -0.105414,-1.544461 0,-4e-6 c 0.06171,0.0019 0.114422,0.0041 0.16346,0.0052 0.04837,0.0019 0.08473,0.0025 0.124427,0.0035 0.03869,0.0016 0.08106,-0.0022 0.10775,0.0016 0.02502,0.0045 0.03302,0.01322 0.04703,0.02043 0.01301,0.0072 0.02202,0.02126 0.03336,0.0223 0.01067,0.0019 0.02336,-0.0064 0.03302,-0.01363 0.0087,-0.007 0.01468,-0.01672 0.01935,-0.02911 0.0387,-0.0025 0.07072,-0.0039 0.09974,-0.0052 0.02768,-9.96e-4 0.0507,-9.96e-4 0.06905,0 0.01668,0.0017 0.03035,0.0054 0.03603,0.01033 0.005,0.0064 -0.0023,0.01569 -0.0027,0.0223 -6.85e-4,0.006 -0.0067,0.01135 0,0.01692 0.0057,0.0072 0.02669,0.02023 0.036,0.0223 0.0081,0.0021 0.0083,-0.0064 0.01372,-0.01198 0.004,-0.0058 0.007,-0.01157 0.01399,-0.02044 0.006,-0.0081 0.01473,-0.01694 0.02474,-0.02746 0.029,-9.96e-4 0.06338,-9.96e-4 0.103041,-0.0016 0.04003,-4e-4 0.101374,-0.0033 0.132787,0 0.03002,0.0044 0.03067,0.01816 0.04698,0.02395 0.01538,0.0066 0.03577,0.013 0.04707,0.01198 0.01103,-0.0014 0.0094,-0.01218 0.01668,-0.01878 0.0054,-0.0054 0.0023,-0.01135 0.01937,-0.01548 0.01631,-0.0039 0.04299,-0.008 0.08006,-0.0085 0.03604,6.18e-4 0.104431,0.0055 0.135752,0.01011 0.03002,0.0049 0.03502,0.0078 0.04707,0.019 0.01029,0.01198 0.01334,0.03592 0.01927,0.04954 0.0057,0.01405 0.01334,0.02436 0.01937,0.03262 -0.0017,-0.01633 -2.78e-4,-0.03035 0.0027,-0.04295 0.003,-0.01177 0.01038,-0.02043 0.01668,-0.03077 0.006,-0.01053 0.01038,-0.02002 0.01668,-0.03076 0.05402,-0.0021 0.103414,-0.0027 0.149467,-0.0019 0.04568,0.0012 0.08673,0.0033 0.124448,0.007 0.01065,0.01177 0.01927,0.02311 0.02465,0.03406 0.0057,0.01156 0.008,0.02188 0.0083,0.03262 0.01501,-0.0093 0.02567,-0.01898 0.03067,-0.02911 0.0047,-0.01012 0.0047,-0.01981 0,-0.03076 0.05838,0.0022 0.115088,0.0031 0.17152,0.0016 0.05671,-0.0012 0.120093,-0.0052 0.163089,-0.0085 0.04105,-0.0027 0.05208,-0.0085 0.08302,-0.0087 0.02975,8.1e-4 0.06542,0.0072 0.09674,0.01031 0.02974,0.0031 0.03771,0.0054 0.0884,0.0068 0.05244,0.0017 0.162161,0.0039 0.215906,0.0036 0.05133,2.01e-4 0.08135,-0.0012 0.09136,-0.0036 l 0.0083,1.503399 c -0.02567,-0.0055 -0.0594,-0.0085 -0.102394,-0.0087 -0.04438,1.72e-4 -0.09776,0.006 -0.155119,0.0087 -0.05838,0.0035 -0.125744,0.0085 -0.187829,0.01009 -0.06273,0.0017 -0.133157,0.0023 -0.182825,0.0019 -0.05004,9.96e-4 -0.09007,0.0029 -0.116109,0 -0.02696,-0.0025 -0.03364,-0.01015 -0.04438,-0.01898 -0.01167,-0.0091 -0.01427,-0.02128 -0.02196,-0.03429 -0.0087,-0.01198 -0.02002,-0.02661 -0.02502,-0.03923 -0.0054,-0.01198 -0.0047,-0.02953 -0.0083,-0.03429 -0.0057,-0.0035 -0.01603,-4e-4 -0.01937,0.0085 -0.0027,0.0095 0.0017,0.03177 0,0.04462 -0.0027,0.01319 -0.0087,0.02248 -0.01668,0.03257 -0.0087,0.01078 -0.01065,0.02334 -0.03299,0.02913 -0.0227,0.0064 -0.05773,0.0068 -0.10508,0.0068 -0.04902,0 -0.108788,-0.0079 -0.185514,-0.0068 -0.07904,0.0021 -0.191814,0.01302 -0.275212,0.01525 -0.08302,0.0027 -0.147798,-0.0018 -0.2185,-0.0033 -0.07237,-0.0012 -0.142795,-0.0089 -0.204786,-0.0071 -0.06171,0.0027 -0.120463,0.01778 -0.163162,0.01904 -0.04336,8.1e-4 -0.06105,-0.0085 -0.09674,-0.01198 -0.03703,-0.0023 -0.07505,-0.0037 -0.119092,-0.0035 -0.0067,-0.02088 -0.01268,-0.03717 -0.01668,-0.04978 -0.005,-0.01216 -0.0087,-0.01675 -0.0083,-0.02557 6.84e-4,-0.0089 0.004,-0.01858 0.01134,-0.02913 -0.02402,0.008 -0.03836,0.01692 -0.04437,0.02747 -0.0063,0.01095 0.005,0.02288 0.0083,0.0359 0.003,0.01325 0.0067,0.02747 0.01101,0.04273 -0.0427,0.0037 -0.0844,0.006 -0.1301,0.0068 -0.04637,0.0014 -0.103746,0.0014 -0.141108,0 -0.03769,-6.19e-4 -0.06504,-0.0023 -0.08205,-0.005 z" />
        <path
           inkscape:connector-curvature="0"
           id="path54"
           style="fill:url(#XMLID_6_);fill-rule:evenodd"
           d="m 33.416145,41.699788 c -10e-4,-0.43545 -10e-4,-0.776044 -0.0027,-1.042601 -0.0019,-0.264683 -0.003,-0.440182 -0.0057,-0.535971 l 0,2e-6 c 0.02474,0.01094 0.04874,0.01837 0.07478,0.0223 0.02502,0.0044 0.05032,0.0033 0.07737,0.0016 0.02632,-0.0012 0.05402,-0.0049 0.08302,-0.01031 l -0.0417,1.559774 c -0.0303,0.01073 -0.05569,0.01818 -0.07737,0.02231 -0.02168,0.0054 -0.03567,0.0057 -0.05235,0.0035 -0.0177,-0.0025 -0.03707,-0.0099 -0.05541,-0.02065 z" />
        <path
           inkscape:connector-curvature="0"
           id="path56"
           style="fill:#412318;fill-rule:evenodd"
           d="m 33.402153,40.122865 c 0.02539,0.01033 0.05439,0.01694 0.08571,0.02065 0.03141,0.0037 0.0757,0.0045 0.102393,0.0016 0.02539,-0.0022 0.04337,-0.0074 0.05272,-0.01548 -0.01334,-0.0031 -0.0303,-0.0062 -0.04967,-0.0085 -0.02038,-0.0022 -0.04309,-0.0037 -0.0694,-0.0052 l -0.03299,-0.01362 c -0.02038,-0.0025 -0.03836,-0.0017 -0.05272,0.0016 -0.01566,0.0036 -0.02641,0.0095 -0.03605,0.01879 z" />
        <path
           inkscape:connector-curvature="0"
           id="path58"
           style="fill-rule:evenodd"
           d="m 30.582314,41.722097 c 0.02102,0.0022 0.04337,0.0022 0.07072,0 0.02669,-0.0023 0.05571,-0.006 0.0884,-0.01279 l 0.003,-0.02191 c 0.03169,-0.0014 0.06038,-0.0021 0.0914,-0.0018 0.02969,9.97e-4 0.05571,0.0041 0.0884,0.0037 0.03169,-9.96e-4 0.07606,-0.0047 0.106082,-0.0072 0.03036,-0.0014 0.05404,-0.0021 0.07372,-0.0018 0.0023,-0.0031 0.0023,-0.01009 0,-0.0219 -0.003,-0.01176 -0.01601,-0.03343 -0.01468,-0.04749 0.0017,-0.01319 0.0087,-0.02414 0.02369,-0.0328 -0.0067,0.01239 -0.0097,0.02271 -0.009,0.03097 3.33e-4,0.0087 0.0073,0.0085 0.01201,0.02002 0.0043,0.01221 0.007,0.02873 0.01168,0.05121 0.02869,4.01e-4 0.06071,0.0017 0.0974,0.0037 0.03603,0.0029 0.06772,0.0099 0.120761,0.0091 0.05204,-9.97e-4 0.142099,-0.01176 0.194454,-0.01462 0.05272,-0.0021 0.09044,-0.0015 0.118146,0.0018 0.03169,0.0055 0.06968,0.008 0.117775,0.0091 0.04837,0.0014 0.115368,-0.0016 0.165128,-0.0037 0.04698,-0.0023 0.06672,-0.0041 0.12074,-0.0072 0.05365,-0.0021 0.146409,-0.005 0.20349,-0.0054 0.05671,6.19e-4 0.09173,0.008 0.135752,0.0072 0.04374,-4e-4 0.08377,-0.0044 0.123798,-0.01095 0.0026,-0.0052 0.0056,-0.01049 0.01167,-0.01835 0.0053,-0.0064 0.01696,-0.01221 0.02066,-0.02541 0.0026,-0.01325 -0.0057,-0.04502 -0.003,-0.05471 0.0024,-0.0091 0.006,-0.0097 0.01473,-0.0018 -0.0054,0.01652 -0.0044,0.03051 0.003,0.04376 0.007,0.01319 0.02835,0.02478 0.03836,0.03469 0.0083,0.01073 -0.003,0.01899 0.01473,0.02557 0.01733,0.0066 0.03568,0.0095 0.0884,0.01095 0.05133,0.0017 0.161049,-0.0023 0.221095,-0.0037 0.05875,-8.1e-4 0.07904,-9.97e-4 0.131768,-0.0037 0.0517,-0.0022 0.122502,-0.0099 0.180138,-0.01095 0.05671,-4e-4 0.110733,0.0021 0.162162,0.0075 l -0.003,0.03286 c 0.02761,0.01445 0.05764,0.02082 0.09136,0.02002 0.03299,-9.96e-4 0.0694,-0.0093 0.109065,-0.02564 l 0.04105,-1.574397 0,-1.3e-5 c -0.0021,-0.0011 -0.01232,-0.0029 -0.03234,-0.0056 -0.02066,-0.0027 -0.04976,-0.005 -0.0884,-0.0091 l -0.0177,-0.01466 0,0 c -0.02937,-4e-4 -0.0517,8.1e-4 -0.0707,0.0037 -0.01909,0.0035 -0.03234,0.0076 -0.04142,0.01466 l 0.003,0.04727 c -0.148817,-0.0017 -0.262607,-0.0036 -0.344986,-0.0072 -0.08275,-0.0033 -0.09405,-0.01237 -0.147428,-0.01279 -0.05504,6.19e-4 -0.125466,0.01073 -0.173837,0.01279 -0.048,0.0022 -0.072,-4.01e-4 -0.11203,0 -0.04142,0.0012 -0.08479,0.0025 -0.132787,0.0054 -6.46e-4,0.01383 -0.0013,0.02539 -0.0057,0.03468 -0.0047,0.0099 -0.0094,0.01672 -0.0177,0.02209 0.0057,-0.01198 0.0067,-0.02354 0.003,-0.03468 -0.0046,-0.01094 -0.01232,-0.02106 -0.02669,-0.03117 -0.05532,-0.0041 -0.108417,-0.006 -0.159104,-0.0072 -0.05235,-8.09e-4 -0.09943,-2.11e-4 -0.147428,0.0019 0.0057,0.01053 0.0077,0.02024 0.006,0.0291 -0.003,0.0093 -0.01399,0.01383 -0.0177,0.02561 -0.0037,0.01259 -0.0046,0.02767 -0.003,0.04748 -3.71e-4,-0.0041 -0.0014,-0.0091 -0.003,-0.01651 -0.0027,-0.0072 -0.0073,-0.01631 -0.009,-0.0256 -0.0021,-0.0083 0.0027,-0.01837 -0.0027,-0.02726 -0.006,-0.0091 -0.0083,-0.01817 -0.03271,-0.02559 -0.02594,-0.007 -0.07468,-0.01053 -0.117682,-0.0128 -0.04475,-0.0014 -0.112494,-4e-4 -0.141498,0.0055 -0.029,0.007 -0.01399,0.03449 -0.02965,0.03469 -0.0164,4e-4 -0.03641,-0.02725 -0.06773,-0.03283 -0.03336,-0.0052 -0.0821,0.0021 -0.126764,0.0019 -0.04466,4.01e-4 -0.09044,4.01e-4 -0.138438,0 -0.009,0.0076 -0.01603,0.01611 -0.02372,0.02539 -0.0076,0.0099 -0.01196,0.03139 -0.02066,0.03097 -0.01099,-2.01e-4 -0.03267,-0.02519 -0.03534,-0.03283 -0.0017,-0.0066 0.02768,-0.0049 0.02369,-0.01093 -0.0053,-0.0058 -0.01268,-0.02168 -0.05304,-0.0254 -0.0417,-0.0031 -0.104412,-4e-4 -0.191813,0.0072 -0.008,0.02559 -0.01835,0.03839 -0.03236,0.03839 -0.01501,-2.12e-4 -0.02969,-0.03076 -0.05304,-0.03839 -0.02369,-0.007 -0.01968,-0.0017 -0.0884,-0.0037 -0.07104,-0.0017 -0.178795,-0.0029 -0.329587,-0.0054 -0.006,-0.01115 -0.02102,-0.01755 -0.05004,-0.02002 -0.02835,-0.0021 -0.06905,6.18e-4 -0.120759,0.0072 l 4e-6,0 0.02937,1.55811 c 0.01501,0.006 0.03002,0.0095 0.04136,0.01279 0.01101,0.0035 0.02201,0.0045 0.02935,0.0054 0.002,0.0078 0.004,0.01566 0.006,0.02374 z m -0.06504,-0.04565 c 0.03002,-0.0035 0.05837,-0.0049 0.08873,-0.0035 0.02935,0.0018 0.06738,0.0076 0.0884,0.01256 0.02068,0.0056 0.03202,0.01118 0.03536,0.01841 -0.002,-0.04668 -0.006,-0.131501 -0.01468,-0.260995 -0.01001,-0.129838 -0.02102,-0.288579 -0.03569,-0.508913 -0.01401,-0.219876 -0.02969,-0.482258 -0.04703,-0.799156 l 0,-3e-6 c -0.01935,-0.0066 -0.0397,-0.01053 -0.06471,-0.01094 -0.02535,-2.12e-4 -0.0517,0.0031 -0.08273,0.0091 0.01067,0.514476 0.02135,1.028952 0.03236,1.543428 z m 0.129746,-1.534367 c 0.136105,0.0039 0.235181,0.0064 0.302234,0.0074 0.06538,9.96e-4 0.06772,-0.0064 0.0944,0 0.02635,0.007 0.04704,0.03613 0.06471,0.04191 0.01668,0.007 0.02736,0.0039 0.03836,-0.0037 0.01067,-0.007 0.01768,-0.02065 0.02369,-0.04005 0.0417,-0.0022 0.07806,-0.0035 0.109083,-0.0037 0.03202,-2.12e-4 0.06105,9.97e-4 0.07672,0.0037 0.01268,0.0039 0.01001,0.01197 0.0087,0.01631 -0.002,0.0047 -0.01635,0.005 -0.01468,0.01094 0.0017,0.0074 0.01601,0.02003 0.02635,0.02747 0.01001,0.0074 0.02435,0.01734 0.03534,0.01465 0.0094,-0.0022 0.01603,-0.0192 0.02372,-0.02931 0.0077,-0.0099 0.01362,-0.02022 0.02066,-0.03097 0.05606,0.0014 0.103783,0.0021 0.144463,0.0019 0.04031,-2.01e-4 0.07237,-0.0045 0.09739,-0.0019 0.02335,0.0037 0.03567,0.01528 0.05004,0.02188 0.01399,0.007 0.02798,0.01755 0.03836,0.01817 0.0096,8.1e-4 0.01705,-0.0074 0.02335,-0.01446 0.0054,-0.0066 -0.01038,-0.01941 0.01205,-0.0256 0.02196,-0.0058 0.08238,-0.0074 0.120741,-0.0072 0.03799,0.0012 0.08136,0.007 0.106749,0.0126 0.02465,0.0058 0.03206,0.0091 0.04133,0.02187 0.0077,0.01363 0.0017,0.04398 0.0091,0.05844 0.007,0.01487 0.01733,0.02436 0.03234,0.02931 -0.0054,-0.0192 -0.0064,-0.03489 -0.003,-0.04934 0.0027,-0.01363 0.01473,-0.02333 0.02076,-0.03469 0.0057,-0.01114 0.0086,-0.02209 0.01167,-0.03283 0.0053,-2.01e-4 0.0303,-2.01e-4 0.07366,0 0.04374,4e-4 0.104803,0.0011 0.18579,0.0019 0.01306,0.0095 0.02242,0.02043 0.02937,0.03283 0.0064,0.0128 0.0094,0.02622 0.009,0.04192 0.01168,-0.0068 0.02242,-0.01507 0.02937,-0.0256 0.0077,-0.01053 0.01167,-0.02188 0.01474,-0.03634 0.111011,4e-4 0.200153,-8.09e-4 0.271133,-0.0037 0.07042,-0.0027 0.09776,-0.01279 0.150486,-0.01279 0.05069,0.0012 0.07969,0.01114 0.159104,0.01465 0.08006,0.0033 0.183196,0.0045 0.315612,0.0037 l 0.01167,1.49061 c -0.04374,-0.006 -0.09442,-0.0085 -0.156139,-0.0075 -0.06338,0.0023 -0.155119,0.01118 -0.212198,0.01468 -0.05634,0.0033 -0.0657,0.0035 -0.123059,0.0037 -0.05902,0.0014 -0.17708,0.0022 -0.224152,0 -0.04735,-0.0027 -0.04503,-0.0087 -0.05606,-0.01468 -0.01167,-0.0047 -0.004,-0.006 -0.01167,-0.01652 -0.0094,-0.01049 -0.03067,-0.0297 -0.03836,-0.04559 -0.0077,-0.01508 6.46e-4,-0.03612 -0.006,-0.04565 -0.008,-0.0085 -0.03234,-0.01302 -0.03836,-0.0072 -0.0073,0.0064 0.0017,0.02867 0,0.04375 -0.0019,0.01571 -0.005,0.03549 -0.01167,0.04749 -0.008,0.01239 -0.01835,0.02065 -0.03234,0.02564 -0.04401,0.006 -0.08237,0.0083 -0.115088,0.0091 -0.03373,4e-4 -0.03206,-0.0041 -0.08237,-0.0055 -0.05106,-8.72e-4 -0.146131,-2.29e-4 -0.218224,0.0018 -0.07339,0.0031 -0.16179,0.01302 -0.215164,0.01468 -0.053,0.0022 -0.06171,-8.72e-4 -0.103412,-0.0037 -0.04364,-0.0033 -0.102393,-0.01055 -0.153081,-0.01279 -0.05272,-9.97e-4 -0.103413,0.0027 -0.153451,0.0055 -0.05041,0.0041 -0.106091,0.01382 -0.141451,0.01468 -0.03536,4e-4 -0.03869,-0.0072 -0.06772,-0.01096 -0.02902,-0.0029 -0.06438,-0.0054 -0.106082,-0.0075 -0.01601,-0.02002 -0.02402,-0.03756 -0.02669,-0.05655 -0.0027,-0.01836 0.0013,-0.03573 0.01201,-0.05288 -0.02736,0.01841 -0.04603,0.03246 -0.05604,0.04382 -0.01134,0.01113 -0.0087,0.01319 -0.006,0.02374 0.0027,0.01153 0.0087,0.02557 0.02068,0.04376 -0.0087,0.0035 -0.03269,0.0052 -0.07072,0.0072 -0.0397,0.0021 -0.113754,0.0041 -0.159123,0.0037 -0.0457,1.72e-4 -0.08039,-9.96e-4 -0.109083,-0.0037 l -0.103423,-1.532532 0,-3e-6 z m -0.05303,1.570898 -0.01168,-0.02374 -0.04136,-0.0072 c 0.03135,-8.1e-4 0.06037,-4e-4 0.08839,0.0035 0.02802,0.0041 0.05237,0.0095 0.07672,0.01841 -0.02535,0.0062 -0.0457,0.0093 -0.06471,0.01095 -0.01901,0.0016 -0.03436,9.97e-4 -0.04737,-0.0019 z m 3.03937,-1.583688 c -0.01668,0.0054 -0.03642,0.0085 -0.06171,0.0093 -0.02669,9.96e-4 -0.06143,-2.01e-4 -0.08877,-0.0037 -0.02734,-0.0033 -0.04967,-0.0074 -0.0707,-0.01466 0.01103,-0.006 0.02502,-0.0091 0.03836,-0.01094 0.01297,-0.0014 0.029,-8.1e-4 0.04438,0.0019 l 0.02937,0.0128 c 0.03633,0.0016 0.07265,0.0035 0.109066,0.0054 z m -0.221189,0.0056 c 0.0037,0.149875 0.0067,0.350768 0.009,0.612944 0.0017,0.26369 0.0027,0.574348 0.003,0.950556 0.0073,0.01176 0.02363,0.01755 0.053,0.01652 0.02798,-9.97e-4 0.06773,-0.0081 0.117775,-0.02191 l 0.03836,-1.549049 0,2.5e-5 c -0.03873,0.0055 -0.07311,0.0089 -0.103135,0.0091 -0.03234,2e-4 -0.0593,-0.0035 -0.07969,-0.0072 -0.02002,-0.0033 -0.03234,-0.0062 -0.03836,-0.01094 z" />
      </g>
    </g>
  </g>
</svg>
