<?xml version="1.0" encoding="UTF-8" standalone="no"?>
<!-- Created with Inkscape (http://www.inkscape.org/) -->

<svg
   xmlns:dc="http://purl.org/dc/elements/1.1/"
   xmlns:cc="http://creativecommons.org/ns#"
   xmlns:rdf="http://www.w3.org/1999/02/22-rdf-syntax-ns#"
   xmlns:svg="http://www.w3.org/2000/svg"
   xmlns="http://www.w3.org/2000/svg"
   xmlns:xlink="http://www.w3.org/1999/xlink"
   xmlns:sodipodi="http://sodipodi.sourceforge.net/DTD/sodipodi-0.dtd"
   xmlns:inkscape="http://www.inkscape.org/namespaces/inkscape"
   width="100"
   height="100"
   id="svg2"
   sodipodi:version="0.32"
   inkscape:version="0.91 r13725"
   version="1.0"
   sodipodi:docname="parachute.svg">
  <defs
     id="defs4">
    <linearGradient
       inkscape:collect="always"
       xlink:href="#linearGradient4497"
       id="linearGradient4503"
       x1="940.9632"
       y1="637.41199"
       x2="945.6795"
       y2="650.04968"
       gradientUnits="userSpaceOnUse"
       gradientTransform="matrix(1,0,0,1.0859179,0,-53.897354)" />
    <linearGradient
       inkscape:collect="always"
       id="linearGradient4497">
      <stop
         style="stop-color:#275eb1;stop-opacity:1"
         offset="0"
         id="stop4499" />
      <stop
         style="stop-color:#e6ecf9;stop-opacity:1"
         offset="1"
         id="stop4501" />
    </linearGradient>
    <linearGradient
       inkscape:collect="always"
       xlink:href="#linearGradient4497"
       id="linearGradient4503-2"
       x1="940.9632"
       y1="637.41199"
       x2="945.6795"
       y2="650.04968"
       gradientUnits="userSpaceOnUse"
       gradientTransform="matrix(-1,0,0,1.0859179,1919.9978,-53.897354)" />
  </defs>
  <sodipodi:namedview
     id="base"
     pagecolor="#ffffff"
     bordercolor="#666666"
     borderopacity="1.0"
     inkscape:pageopacity="0.0"
     inkscape:pageshadow="2"
     inkscape:zoom="5.7025"
     inkscape:cx="-3.8988758"
     inkscape:cy="-4.0498381"
     inkscape:document-units="px"
     inkscape:current-layer="layer1"
     width="100px"
     height="100px"
     inkscape:window-width="3200"
     inkscape:window-height="1679"
     inkscape:window-x="0"
     inkscape:window-y="0"
     showgrid="false"
     inkscape:window-maximized="1" />
  <metadata
     id="metadata7">
    <rdf:RDF>
      <cc:Work
         rdf:about="">
        <dc:format>image/svg+xml</dc:format>
        <dc:type
           rdf:resource="http://purl.org/dc/dcmitype/StillImage" />
        <dc:title />
      </cc:Work>
    </rdf:RDF>
  </metadata>
  <g
     inkscape:label="Calque 1"
     inkscape:groupmode="layer"
     id="layer1">
    <path
       style="fill:none;fill-opacity:0.75;fill-rule:evenodd;stroke:#000000;stroke-width:0.94840348px;stroke-linecap:butt;stroke-linejoin:miter;stroke-opacity:1"
       d="M 12.795569,57.558711 54.576627,76.724334"
       id="path1874"
       sodipodi:nodetypes="cc"
       inkscape:connector-curvature="0" />
    <path
       style="fill:none;fill-opacity:0.75;fill-rule:evenodd;stroke:#000000;stroke-width:0.94840348px;stroke-linecap:butt;stroke-linejoin:miter;stroke-opacity:1"
       d="M 34.548553,49.509149 52.94755,66.183241"
       id="path2072"
       sodipodi:nodetypes="cc"
       inkscape:connector-curvature="0" />
    <path
       style="fill:none;fill-opacity:0.75;fill-rule:evenodd;stroke:#000000;stroke-width:0.94840348px;stroke-linecap:butt;stroke-linejoin:miter;stroke-opacity:1"
       d="m 58.218096,37.147323 1.724906,24.91531"
       id="path2070"
       sodipodi:nodetypes="cc"
       inkscape:connector-curvature="0" />
    <path
       style="fill:none;fill-opacity:0.75;fill-rule:evenodd;stroke:#000000;stroke-width:0.94840348px;stroke-linecap:butt;stroke-linejoin:miter;stroke-opacity:1"
       d="M 75.467157,21.52734 68.567532,69.058085"
       id="path1876"
       sodipodi:nodetypes="cc"
       inkscape:connector-curvature="0" />
    <path
       style="fill:#1f78cf;fill-opacity:1;fill-rule:evenodd;stroke:none;stroke-width:1px;stroke-linecap:butt;stroke-linejoin:miter;stroke-opacity:1"
       d="m 11.453975,38.181579 c 0.109575,-2.873319 0.237811,-5.793501 0.987146,-8.569553 0.812607,-3.010453 1.921813,-6.044346 3.75115,-8.569554 1.812624,-2.502136 4.366756,-4.423593 6.910016,-6.17805 2.257582,-1.557384 7.304873,-3.786547 7.304873,-3.786547 0,0 6.509662,-1.990088 9.871451,-2.3915033 2.809856,-0.3355116 5.668023,-0.2177752 8.489447,0 2.589639,0.1998847 5.242385,0.3545425 7.699731,1.1957516 2.206135,0.7552127 6.1203,3.3879627 6.1203,3.3879627 l 14.412318,8.569554 c 0,0 -6.233567,2.109236 -9.453502,2.008572 -2.739404,-0.08564 -7.920252,-2.207865 -7.920252,-2.207865 l -0.679456,7.611273 0.08717,9.527834 c 0,0 -7.264899,-0.386129 -10.649619,-1.578682 -3.601886,-1.269068 -9.882996,-5.795119 -9.882996,-5.795119 0,0 0.117631,6.229524 -0.435267,9.274711 -0.604352,3.328579 -3.118455,9.658023 -3.118455,9.658023 0,0 -4.664227,-3.262972 -7.130536,-4.675725 -2.796615,-1.60196 -8.663785,-4.292412 -8.663785,-4.292412 0,0 -0.875577,6.584004 -2.113414,9.62748 -1.140428,2.803975 -4.796601,7.710918 -4.796601,7.710918 0,0 -1.050656,-13.684625 -0.789717,-20.527069 z"
       id="path1872"
       sodipodi:nodetypes="sssscsssccscccscscscscs"
       inkscape:connector-curvature="0" />
    <path
       style="fill:#ffd42a;fill-opacity:1;fill-rule:evenodd;stroke:none;stroke-width:1px;stroke-linecap:butt;stroke-linejoin:miter;stroke-opacity:1"
       d="m 13.810436,51.356087 c -1.098948,-3.127477 -0.586573,-6.853211 -0.439898,-10.279812 0.08539,-1.995039 0.436329,-3.971983 0.766625,-5.941343 0.312936,-1.865854 0.714017,-3.717022 1.149937,-5.558032 0.233389,-0.985666 0.451232,-1.979192 0.784095,-2.935858 0.56129,-1.613181 1.008102,-3.338264 2.036379,-4.702098 1.706039,-2.26277 4.444823,-6.394019 6.570682,-5.394667 -0.566144,2.952844 -0.26077,8.256822 -1.149938,12.265999 -0.616908,2.781585 -1.483322,5.563306 -2.874843,8.049561 -0.787991,1.407917 -2.343244,2.313282 -3.034028,3.771356 -1.085133,2.290448 -0.57099,5.109401 -1.565721,7.440534 -0.52034,1.219407 -0.460536,3.846886 -2.24329,3.28436 z"
       id="path2959"
       sodipodi:nodetypes="caaaaacaaaac"
       inkscape:connector-curvature="0" />
    <path
       style="fill:#f43732;fill-opacity:1;fill-rule:evenodd;stroke:none;stroke-width:1px;stroke-linecap:butt;stroke-linejoin:miter;stroke-opacity:1"
       d="m 21.992853,39.701958 c 0.772237,1.906832 4.255715,2.69766 6.028437,3.741601 2.291,1.349151 5.928304,3.188531 5.928304,3.188531 0,0 1.933678,-4.199206 2.476277,-6.431433 0.499565,-2.055188 0.836889,-4.197083 0.69257,-6.307186 -0.123699,-1.80861 -0.679717,-3.580416 -1.324124,-5.274852 -0.58913,-1.549087 -1.612584,-2.899989 -2.299875,-4.408093 -0.796999,-1.748831 -0.987447,-3.805127 -2.108219,-5.366374 -0.925412,-1.289109 -0.253559,-2.159717 -3.641468,-3.066499 -1.494018,1.879172 -2.416051,3.389612 -2.874843,5.366374 -0.404673,1.743586 0.397537,3.588322 0.191656,5.366374 -0.251347,2.170714 -1.060683,4.242834 -1.724906,6.324656 -0.620488,1.944749 -2.110065,4.974837 -1.343809,6.866901 z"
       id="path2963"
       sodipodi:nodetypes="sscaaaascssss"
       inkscape:connector-curvature="0" />
    <path
       style="fill:#ffd42a;fill-opacity:1;fill-rule:evenodd;stroke:none;stroke-width:1px;stroke-linecap:butt;stroke-linejoin:miter;stroke-opacity:1"
       d="m 57.451472,22.102308 c 1.078266,1.519833 0.616852,3.694619 0.601046,5.55803 -0.01802,2.124637 0.583722,4.706058 -0.792703,6.324657 -0.733362,0.862393 -2.126433,0.930992 -3.258156,0.958281 -2.168654,0.0523 -4.337693,-0.66275 -6.324656,-1.533251 -1.898843,-0.831896 -3.324914,-2.513926 -5.174718,-3.449812 -1.334448,-0.675149 -3.05548,-0.590511 -4.216437,-1.53325 -1.692734,-1.374561 -2.466164,-3.611957 -3.449813,-5.55803 -0.931165,-1.842242 -1.086973,-4.079418 -2.299874,-5.749687 -0.910413,-1.253716 -2.077157,-0.57132 -3.569629,-2.977191 2.378365,-2.177445 4.707113,0.557776 7.019441,1.060629 1.817883,0.395328 3.615425,0.904635 5.366375,1.53325 2.558085,0.918387 4.825978,2.648178 7.474593,3.258155 1.495435,0.3444 3.110265,-0.177633 4.599749,0.191657 1.442269,0.357584 3.164972,0.704647 4.024782,1.916562 z"
       id="path2965"
       sodipodi:nodetypes="aaaaaaaaacaaaaa"
       inkscape:connector-curvature="0" />
    <path
       style="fill:#f43732;fill-opacity:1;fill-rule:evenodd;stroke:none;stroke-width:1px;stroke-linecap:butt;stroke-linejoin:miter;stroke-opacity:1"
       d="m 33.829777,12.138399 c 2.716339,-1.389034 5.622371,-1.370994 5.622371,-1.370994 0,0 3.822152,-0.234584 5.733324,-0.17751 2.115969,0.06319 6.324656,0.574969 6.324656,0.574969 0,0 4.427696,1.196222 6.516312,2.121257 1.412817,0.625728 4.024781,2.299875 4.024781,2.299875 l 4.216437,2.299875 4.408093,2.299875 -4.024781,0.766625 c 0,0 -5.280606,-2.020223 -8.049561,-2.491531 -1.701615,-0.289635 -5.174719,-0.191657 -5.174719,-0.191657 l -4.983062,-0.383312 c 0,0 -5.014336,-1.686375 -7.474592,-2.654894 -2.413177,-0.949986 -5.488866,-1.001787 -7.139259,-3.092578 z"
       id="path2967"
       sodipodi:nodetypes="ccacaccccaccac"
       inkscape:connector-curvature="0" />
    <g
       transform="matrix(0.0867404,-0.04740685,0.04740685,0.0867404,-18.610131,59.441573)"
       style="display:inline"
       id="g6082">
      <path
         sodipodi:nodetypes="csszszcc"
         inkscape:connector-curvature="0"
         id="path3775-3"
         d="m 725.19896,688.2083 c 24.96718,-0.20499 97.87831,26.99326 95.52293,37.32145 -0.61368,2.69157 -26.12412,11.80311 -36.00778,16.45899 -5.64056,2.65711 2.65438,10.74634 -2.59187,11.39311 -5.24624,0.64676 -19.5494,-5.18991 -31.03857,-5.98168 -14.76208,-1.01733 -42.82333,3.17017 -49.08376,2.54609 -6.2604,-0.62407 -14.49641,-45.40241 -11.0016,-47.02542 10.37232,-4.77793 26.82227,-14.16803 34.20065,-14.71254 z"
         style="display:inline;opacity:0.98999999;fill:#a78014;fill-opacity:1;stroke:none" />
      <path
         sodipodi:nodetypes="csszszcc"
         inkscape:connector-curvature="0"
         id="path3775"
         d="m 607.11118,688.20958 c -24.96719,-0.20499 -97.8783,26.99326 -95.52304,37.32145 0.6138,2.69157 26.12419,11.80311 36.00783,16.45898 5.64059,2.65711 -2.65444,10.74635 2.59185,11.39311 5.24628,0.64676 19.5495,-5.1899 31.03858,-5.98167 14.76205,-1.01733 42.82338,3.17016 49.0838,2.54608 6.26041,-0.62407 14.49642,-45.4024 11.00161,-47.02541 -10.37232,-4.77794 -26.82221,-14.16803 -34.20063,-14.71254 z"
         style="display:inline;fill:#a78014;fill-opacity:1;stroke:none" />
      <g
         transform="matrix(1.6153725,0,0,1.6153725,-885.60431,-643.17342)"
         id="g4667"
         style="display:inline">
        <path
           style="display:inline;fill:#e2a70e;fill-opacity:1;stroke:none"
           d="m 921.34614,828.77469 c -13.48149,-0.11069 -52.85117,12.57551 -51.57941,18.1524 0.33143,1.45336 14.10624,4.3733 19.44309,6.88733 3.04574,1.43475 0.31118,5.80268 3.14402,6.15192 2.83282,0.34923 8.8116,-2.80239 15.01534,-3.22992 7.97104,-0.54933 25.12326,1.9673 28.5037,1.63031 3.38042,-0.33698 3.8276,-22.77136 1.94051,-23.64774 -5.60072,-2.57993 -12.48314,-5.65028 -16.46725,-5.9443 z"
           id="path3775-9"
           inkscape:connector-curvature="0"
           sodipodi:nodetypes="csszszcc" />
        <path
           style="display:inline;fill:#e2a70e;fill-opacity:1;stroke:none"
           d="m 999.3113,828.77469 c 13.4815,-0.11069 52.8512,12.57551 51.5794,18.1524 -0.3314,1.45336 -14.1062,4.3733 -19.4431,6.88733 -3.0457,1.43475 -0.3112,5.80268 -3.144,6.15192 -2.8328,0.34923 -8.8116,-2.80239 -15.0153,-3.22992 -7.9711,-0.54933 -25.12331,1.9673 -28.50375,1.63031 -3.38042,-0.33698 -3.8276,-22.77136 -1.94051,-23.64774 5.60072,-2.57993 12.48316,-5.65028 16.46726,-5.9443 z"
           id="path3775-9-3"
           inkscape:connector-curvature="0"
           sodipodi:nodetypes="csszszcc" />
      </g>
      <g
         transform="matrix(1.6153725,0,0,1.6153725,-885.07333,-643.17342)"
         style="display:inline;fill:#2a2a2a;fill-opacity:1"
         id="g4602">
        <path
           style="color:#000000;display:inline;overflow:visible;visibility:visible;fill:#2a2a2a;fill-opacity:1;fill-rule:nonzero;stroke:none;stroke-width:0.5;marker:none;enable-background:accumulate"
           d="m 1047.5807,761.80244 c 0,48.36946 -39.2113,87.58066 -87.58072,87.58066 -48.36945,0 -87.58065,-39.2112 -87.58065,-87.58066 0,-24.18473 13.8028,-71.40879 29.65178,-112.58666 15.84898,-41.17788 25.49178,-72.49935 59.03328,-72.49935 33.54151,0 40.97541,31.32147 56.82441,72.49935 15.849,41.17787 29.6519,88.40193 29.6519,112.58666 z"
           id="path2992"
           inkscape:connector-curvature="0"
           sodipodi:nodetypes="ssszzzs" />
        <path
           style="fill:#2a2a2a;fill-opacity:1;stroke:none"
           d="m 1037.6216,728.00614 c 23.716,-0.38105 55.6572,10.63018 59.7453,12.83874 10.9697,-19.99218 -50.0446,-46.77657 -71.2956,-65.89171 -12.1316,-10.91225 6.4731,51.31353 11.5503,53.05297 z"
           id="path3807"
           inkscape:connector-curvature="0"
           sodipodi:nodetypes="ccsc" />
        <path
           style="display:inline;fill:#2a2a2a;fill-opacity:1;stroke:none"
           d="m 882.37842,728.00614 c -23.716,-0.38105 -55.6572,10.63018 -59.7453,12.83874 -10.9697,-19.99218 50.0446,-46.77657 71.2956,-65.89171 12.1316,-10.91225 -6.4731,51.31353 -11.5503,53.05297 z"
           id="path3807-7"
           inkscape:connector-curvature="0"
           sodipodi:nodetypes="ccsc" />
      </g>
      <path
         sodipodi:nodetypes="sssss"
         inkscape:connector-curvature="0"
         id="path3829"
         d="m 764.45298,559.43856 c 0,62.09666 -42.436,109.20524 -98.76877,109.20524 -56.33272,0 -98.76867,-47.10858 -98.76867,-109.20524 0,-62.09668 42.43595,-122.12821 98.76867,-122.12821 56.33277,0 98.76877,60.03153 98.76877,122.12821 z"
         style="color:#000000;display:inline;overflow:visible;visibility:visible;fill:#f2f2f2;fill-opacity:1;fill-rule:nonzero;stroke:none;stroke-width:0.5;marker:none;enable-background:accumulate" />
      <path
         sodipodi:nodetypes="szszs"
         inkscape:connector-curvature="0"
         id="path3792"
         d="m 728.15604,465.26723 c 0,12.88729 -36.8526,46.14721 -62.47183,46.14721 -25.61923,0 -62.47191,-34.53718 -62.47191,-46.14721 0,-10.30123 27.96964,-38.60976 62.47191,-38.60976 34.5023,0 62.47183,27.46661 62.47183,38.60976 z"
         style="color:#000000;display:inline;overflow:visible;visibility:visible;fill:#b28b16;fill-opacity:1;fill-rule:nonzero;stroke:none;stroke-width:0.5;marker:none;enable-background:accumulate" />
      <path
         sodipodi:nodetypes="szszs"
         inkscape:connector-curvature="0"
         id="path3792-7"
         d="m 719.55779,465.78594 c 0,11.11355 -31.78044,39.79578 -53.87358,39.79578 -22.09316,0 -53.87366,-29.78369 -53.87366,-39.79578 0,-8.88344 18.28733,-36.5265 53.87366,-36.5265 35.58633,0 53.87358,26.91702 53.87358,36.5265 z"
         style="color:#000000;display:inline;overflow:visible;visibility:visible;fill:#f1c43c;fill-opacity:1;fill-rule:nonzero;stroke:none;stroke-width:0.5;marker:none;enable-background:accumulate" />
      <path
         sodipodi:nodetypes="ccsccsc"
         inkscape:connector-curvature="0"
         id="path3803"
         d="m 605.4611,466.58747 -0.10096,1.16105 c 0,0 25.91649,26.90605 60.32407,26.90605 34.40758,0 60.32407,-26.90605 60.32407,-26.90605 l -0.10097,-1.16105 c 0,0 -26.66104,24.75132 -60.2231,24.75132 -33.56206,0 -60.22311,-24.75132 -60.22311,-24.75132 z"
         style="color:#000000;font-style:normal;font-variant:normal;font-weight:normal;font-stretch:normal;font-size:medium;line-height:normal;font-family:Sans;-inkscape-font-specification:Sans;text-indent:0;text-align:start;text-decoration:none;text-decoration-line:none;letter-spacing:normal;word-spacing:normal;text-transform:none;direction:ltr;block-progression:tb;writing-mode:lr-tb;baseline-shift:baseline;text-anchor:start;display:inline;overflow:visible;visibility:visible;fill:#b28b16;fill-opacity:1;stroke:none;stroke-width:1px;marker:none;enable-background:accumulate" />
      <g
         transform="matrix(1.6153725,0,0,1.6153725,-885.02214,-643.17342)"
         id="g4625"
         style="display:inline">
        <path
           style="fill:#f2f2f5;fill-opacity:1;stroke:none"
           d="m 939.0157,625.16734 c 8.22345,-3.27448 13.36227,12.73386 11.8014,21.21012 -1.56086,8.47625 -9.50431,12.46262 -16.2504,5.30623 -6.7461,-7.15639 -3.77445,-23.24187 4.449,-26.51635 z"
           id="path2999"
           inkscape:connector-curvature="0"
           sodipodi:nodetypes="zzzz" />
        <path
           style="display:inline;fill:url(#linearGradient4503);fill-opacity:1;stroke:none"
           d="m 942.97212,636.2935 c 6.98855,-0.19342 7.86724,17.20381 1.52621,16.26008 -6.34105,-0.94375 -8.51478,-16.06661 -1.52621,-16.26008 z"
           id="path3769-9"
           inkscape:connector-curvature="0"
           sodipodi:nodetypes="zzz" />
        <path
           style="fill:#171717;fill-opacity:1;stroke:none"
           d="m 943.91329,641.70876 c 2.94998,-0.0863 3.32089,7.67564 0.64424,7.25458 -2.67665,-0.42106 -3.59422,-7.16827 -0.64424,-7.25458 z"
           id="path3769"
           inkscape:connector-curvature="0"
           sodipodi:nodetypes="zzz" />
        <path
           style="display:inline;fill:#f2f2f5;fill-opacity:1;stroke:none"
           d="m 980.92095,625.16734 c -8.22345,-3.27448 -13.36227,12.73386 -11.8014,21.21012 1.56086,8.47625 9.50431,12.46262 16.2504,5.30623 6.7461,-7.15639 3.77445,-23.24187 -4.449,-26.51635 z"
           id="path2999-2"
           inkscape:connector-curvature="0"
           sodipodi:nodetypes="zzzz" />
        <path
           style="display:inline;fill:url(#linearGradient4503-2);fill-opacity:1;stroke:none"
           d="m 977.02571,636.2935 c -6.98855,-0.19342 -7.86724,17.20381 -1.52621,16.26008 6.34105,-0.94375 8.51478,-16.06661 1.52621,-16.26008 z"
           id="path3769-9-5"
           inkscape:connector-curvature="0"
           sodipodi:nodetypes="zzz" />
        <path
           style="display:inline;fill:#171717;fill-opacity:1;stroke:none"
           d="m 976.08665,641.70876 c -2.94998,-0.0863 -3.32089,7.67564 -0.64424,7.25458 2.67665,-0.42106 3.59422,-7.16827 0.64424,-7.25458 z"
           id="path3769-6"
           inkscape:connector-curvature="0"
           sodipodi:nodetypes="zzz" />
        <path
           style="display:inline;fill:#ffffff;fill-opacity:0.90232556;stroke:none"
           d="m 941.32961,639.49936 c 2.59421,-0.0649 2.92038,5.77001 0.56654,5.45349 -2.35384,-0.31653 -3.16075,-5.38861 -0.56654,-5.45349 z"
           id="path3769-2"
           inkscape:connector-curvature="0"
           sodipodi:nodetypes="zzz" />
        <path
           style="display:inline;fill:#ffffff;fill-opacity:0.76744187;stroke:none"
           d="m 942.09935,645.81792 c 1.70477,-0.0343 1.91911,3.04768 0.3723,2.88049 -1.54682,-0.16719 -2.07708,-2.84622 -0.3723,-2.88049 z"
           id="path3769-2-0"
           inkscape:connector-curvature="0"
           sodipodi:nodetypes="zzz" />
        <path
           style="display:inline;fill:#ffffff;fill-opacity:0.90232556;stroke:none"
           d="m 974.66822,639.49936 c -2.59421,-0.0649 -2.92038,5.77001 -0.56654,5.45349 2.35384,-0.31653 3.16075,-5.38861 0.56654,-5.45349 z"
           id="path3769-2-9"
           inkscape:connector-curvature="0"
           sodipodi:nodetypes="zzz" />
        <path
           style="display:inline;fill:#ffffff;fill-opacity:0.76744187;stroke:none"
           d="m 973.89848,645.81792 c -1.70477,-0.0343 -1.91911,3.04768 -0.3723,2.88049 1.54682,-0.16719 2.07708,-2.84622 0.3723,-2.88049 z"
           id="path3769-2-0-2"
           inkscape:connector-curvature="0"
           sodipodi:nodetypes="zzz" />
      </g>
    </g>
  </g>
</svg>
