<?xml version="1.0" encoding="utf-8"?>

<!DOCTYPE svg PUBLIC "-//W3C//DTD SVG 1.1//EN" "http://www.w3.org/Graphics/SVG/1.1/DTD/svg11.dtd">
<svg version="1.1" id="Layer_1" xmlns="http://www.w3.org/2000/svg" xmlns:xlink="http://www.w3.org/1999/xlink" x="0px" y="0px"
	 viewBox="0 0 2560 1600" enable-background="new 0 0 2560 1600" xml:space="preserve">
<g>
	<defs>
		<rect id="SVGID_1_" width="2560" height="1600"/>
	</defs>
	<clipPath id="SVGID_2_">
		<use xlink:href="#SVGID_1_"  overflow="visible"/>
	</clipPath>
	<g clip-path="url(#SVGID_2_)">
		<g>
			<path fill="none" stroke="#00A551" stroke-width="10.3194" stroke-miterlimit="22.9256" d="M0,228.9282
				c97.4171-72.4071,221.9633-67.804,320,7.2321c108.2293,82.9104,218.9205,174.0397,320,139.839
				c116.8818-39.7523,203.3272-171.5229,320-204.9942c102.6202-29.2548,210.6199,68.6805,320,150.0667
				c97.4171,72.407,221.9634,67.804,320-7.2321c108.2294-82.9104,218.9205-174.0397,320-139.839
				c116.8818,39.7523,203.3271,171.5229,320,204.9942c102.6201,29.2548,210.6199-68.6805,320-150.0667"/>
			<path fill="none" stroke="#00A9A7" stroke-width="10.3194" stroke-miterlimit="22.9256" d="M0,210.9282
				c97.4171-72.4071,221.9633-67.804,320,7.2321c108.2293,82.9104,218.9205,174.0397,320,139.839
				c116.8818-39.7523,203.3272-171.5229,320-204.9942c102.6202-29.2548,210.6199,68.6805,320,150.0667
				c97.4171,72.407,221.9634,67.804,320-7.2321c108.2294-82.9104,218.9205-174.0397,320-139.839
				c116.8818,39.7523,203.3271,171.5229,320,204.9942c102.6201,29.2548,210.6199-68.6805,320-150.0667"/>
			<path fill="none" stroke="#EC1846" stroke-width="10.3194" stroke-miterlimit="22.9256" d="M0,192.9282
				c97.4171-72.4071,221.9633-67.804,320,7.2321c108.2293,82.9104,218.9205,174.0397,320,139.839
				c116.8818-39.7523,203.3272-171.5229,320-204.9942c102.6202-29.2548,210.6199,68.6805,320,150.0667
				c97.4171,72.407,221.9634,67.804,320-7.2321c108.2294-82.9104,218.9205-174.0397,320-139.839
				c116.8818,39.7523,203.3271,171.5229,320,204.9942c102.6201,29.2548,210.6199-68.6805,320-150.0667"/>
			<path fill="none" stroke="#9C248E" stroke-width="10.3194" stroke-miterlimit="22.9256" d="M0,174.9282
				c97.4171-72.4071,221.9633-67.804,320,7.2321c108.2293,82.9104,218.9205,174.0397,320,139.839
				c116.8818-39.7523,203.3272-171.5229,320-204.9942c102.6202-29.2548,210.6199,68.6805,320,150.0667
				c97.4171,72.407,221.9634,67.804,320-7.2321c108.2294-82.9104,218.9205-174.0397,320-139.839
				c116.8818,39.7523,203.3271,171.5229,320,204.9942c102.6201,29.2548,210.6199-68.6805,320-150.0667"/>
			<path fill="none" stroke="#2E3191" stroke-width="10.3194" stroke-miterlimit="22.9256" d="M0,156.9282
				c97.4171-72.4071,221.9633-67.804,320,7.2321c108.2293,82.9104,218.9205,174.0397,320,139.839
				C756.8818,264.2469,843.3272,132.4763,960,99.005c102.6202-29.2548,210.6199,68.6805,320,150.0667
				c97.4171,72.4071,221.9634,67.804,320-7.2321c108.2294-82.9104,218.9205-174.0397,320-139.839
				c116.8818,39.7523,203.3271,171.5229,320,204.9942c102.6201,29.2548,210.6199-68.6804,320-150.0667"/>
			<path fill="none" stroke="#E1E319" stroke-width="10.3194" stroke-miterlimit="22.9256" d="M0,138.9282
				c97.4171-72.4071,221.9633-67.804,320,7.2321c108.2293,82.9104,218.9205,174.0397,320,139.839
				C756.8818,246.2469,843.3272,114.4763,960,81.005c102.6202-29.2548,210.6199,68.6805,320,150.0667
				c97.4171,72.4071,221.9634,67.804,320-7.2321c108.2294-82.9104,218.9205-174.0397,320-139.839
				c116.8818,39.7523,203.3271,171.5229,320,204.9942c102.6201,29.2548,210.6199-68.6804,320-150.0667"/>
			<path fill="none" stroke="#00ABD4" stroke-width="10.3194" stroke-miterlimit="22.9256" d="M0,120.9282
				c97.4171-72.4071,221.9633-67.804,320,7.2321c108.2293,82.9104,218.9205,174.0397,320,139.839
				C756.8818,228.2469,843.3272,96.4763,960,63.005c102.6202-29.2548,210.6199,68.6805,320,150.0667
				c97.4171,72.4071,221.9634,67.804,320-7.2321c108.2294-82.9104,218.9205-174.0397,320-139.839
				c116.8818,39.7523,203.3271,171.5229,320,204.9942c102.6201,29.2548,210.6199-68.6804,320-150.0667"/>
			<path fill="none" stroke="#EC027E" stroke-width="10.3194" stroke-miterlimit="22.9256" d="M0,102.9282
				c97.4171-72.4071,221.9633-67.804,320,7.2321c108.2293,82.9104,218.9205,174.0397,320,139.839
				C756.8818,210.2469,843.3272,78.4763,960,45.005c102.6202-29.2548,210.6199,68.6804,320,150.0667
				c97.4171,72.4071,221.9634,67.804,320-7.2321c108.2294-82.9104,218.9205-174.0397,320-139.839
				c116.8818,39.7523,203.3271,171.5229,320,204.9942c102.6201,29.2548,210.6199-68.6804,320-150.0667"/>
			<path fill="none" stroke="#47B549" stroke-width="10.3194" stroke-miterlimit="22.9256" d="M0,84.9282
				c97.4171-72.4071,221.9633-67.804,320,7.2321c108.2293,82.9104,218.9205,174.0397,320,139.839
				C756.8818,192.2469,843.3272,60.4763,960,27.005c102.6202-29.2548,210.6199,68.6804,320,150.0667
				c97.4171,72.4071,221.9634,67.804,320-7.2321c108.2294-82.9104,218.9205-174.0397,320-139.839
				c116.8818,39.7523,203.3271,171.5229,320,204.9942c102.6201,29.2548,210.6199-68.6804,320-150.0667"/>
			<path fill="none" stroke="#9DCB3B" stroke-width="10.3194" stroke-miterlimit="22.9256" d="M0,66.9282
				c97.4171-72.4071,221.9633-67.804,320,7.2321c108.2293,82.9104,218.9205,174.0397,320,139.839
				C756.8818,174.2469,843.3272,42.4763,960,9.005c102.6202-29.2548,210.6199,68.6804,320,150.0667
				c97.4171,72.4071,221.9634,67.804,320-7.2321c108.2294-82.9104,218.9205-174.0397,320-139.839
				c116.8818,39.7523,203.3271,171.5229,320,204.9942c102.6201,29.2548,210.6199-68.6804,320-150.0667"/>
			<path fill="none" stroke="#00A67A" stroke-width="10.3194" stroke-miterlimit="22.9256" d="M0,48.9282
				c97.4171-72.4071,221.9633-67.804,320,7.2321c108.2293,82.9104,218.9205,174.0397,320,139.839
				C756.8818,156.2469,843.3272,24.4763,960-8.995c102.6202-29.2548,210.6199,68.6804,320,150.0667
				c97.4171,72.4071,221.9634,67.804,320-7.2321c108.2294-82.9104,218.9205-174.0397,320-139.839
				c116.8818,39.7523,203.3271,171.5229,320,204.9942c102.6201,29.2548,210.6199-68.6804,320-150.0667"/>
			<path fill="none" stroke="#EC027E" stroke-width="10.3194" stroke-miterlimit="22.9256" d="M0,30.9282
				c97.4171-72.4071,221.9633-67.804,320,7.2321c108.2293,82.9104,218.9205,174.0397,320,139.839
				C756.8818,138.2469,843.3272,6.4763,960-26.995c102.6202-29.2548,210.6199,68.6804,320,150.0667
				c97.4171,72.4071,221.9634,67.804,320-7.2321c108.2294-82.9104,218.9205-174.0397,320-139.839
				c116.8818,39.7523,203.3271,171.5229,320,204.9942c102.6201,29.2548,210.6199-68.6804,320-150.0667"/>
			<path fill="none" stroke="#0058A8" stroke-width="10.3194" stroke-miterlimit="22.9256" d="M0,12.9282
				c97.4171-72.4071,221.9633-67.804,320,7.2321c108.2293,82.9104,218.9205,174.0397,320,139.839
				C756.8818,120.2469,843.3272-11.5237,960-44.995c102.6202-29.2548,210.6199,68.6805,320,150.0667
				c97.4171,72.4071,221.9634,67.804,320-7.2321c108.2294-82.9104,218.9205-174.0397,320-139.839
				c116.8818,39.7523,203.3271,171.5229,320,204.9942c102.6201,29.2548,210.6199-68.6804,320-150.0667"/>
			<path fill="none" stroke="#9C248E" stroke-width="10.3194" stroke-miterlimit="22.9256" d="M0-5.0718
				c97.4171-72.4071,221.9633-67.804,320,7.2321c108.2293,82.9104,218.9205,174.0397,320,139.839
				C756.8818,102.2469,843.3272-29.5237,960-62.995c102.6202-29.2548,210.6199,68.6805,320,150.0667
				c97.4171,72.4071,221.9634,67.804,320-7.2321c108.2294-82.9104,218.9205-174.0397,320-139.839
				c116.8818,39.7523,203.3271,171.5229,320,204.9942c102.6201,29.2548,210.6199-68.6804,320-150.0667"/>
			<path fill="none" stroke="#00A9A7" stroke-width="10.3194" stroke-miterlimit="22.9256" d="M0-23.0718
				c97.4171-72.4071,221.9633-67.804,320,7.2321c108.2293,82.9104,218.9205,174.0397,320,139.839
				C756.8818,84.2469,843.3272-47.5237,960-80.995c102.6202-29.2548,210.6199,68.6805,320,150.0667
				c97.4171,72.4071,221.9634,67.804,320-7.2321c108.2294-82.9104,218.9205-174.0397,320-139.839
				c116.8818,39.7523,203.3271,171.5229,320,204.9942c102.6201,29.2548,210.6199-68.6804,320-150.0667"/>
			<path fill="none" stroke="#6B2C90" stroke-width="10.3194" stroke-miterlimit="22.9256" d="M0-41.0718
				c97.4171-72.4071,221.9633-67.804,320,7.2321c108.2293,82.9104,218.9205,174.0397,320,139.839
				C756.8818,66.2469,843.3272-65.5237,960-98.995c102.6202-29.2548,210.6199,68.6805,320,150.0667
				c97.4171,72.4071,221.9634,67.804,320-7.2321c108.2294-82.9104,218.9205-174.0397,320-139.839
				c116.8818,39.7523,203.3271,171.5229,320,204.9942c102.6201,29.2548,210.6199-68.6804,320-150.0667"/>
			<path fill="none" stroke="#007AC1" stroke-width="10.3194" stroke-miterlimit="22.9256" d="M0-59.0718
				c97.4171-72.4071,221.9633-67.804,320,7.2321c108.2293,82.9104,218.9205,174.0397,320,139.839
				C756.8818,48.2469,843.3272-83.5237,960-116.995c102.6202-29.2548,210.6199,68.6805,320,150.0667
				c97.4171,72.4071,221.9634,67.804,320-7.2321c108.2294-82.9104,218.9205-174.0397,320-139.839
				c116.8818,39.7523,203.3271,171.5229,320,204.9942c102.6201,29.2548,210.6199-68.6804,320-150.0667"/>
			<path fill="none" stroke="#00A9A7" stroke-width="10.3194" stroke-miterlimit="22.9256" d="M0-77.0718
				c97.4171-72.4071,221.9633-67.804,320,7.2321c108.2293,82.9104,218.9205,174.0397,320,139.839
				C756.8818,30.2469,843.3272-101.5237,960-134.995c102.6202-29.2548,210.6199,68.6804,320,150.0667
				c97.4171,72.4071,221.9634,67.804,320-7.2321c108.2294-82.9104,218.9205-174.0397,320-139.839
				c116.8818,39.7523,203.3271,171.5229,320,204.9942c102.6201,29.2548,210.6199-68.6804,320-150.0667"/>
			<path fill="none" stroke="#EC1846" stroke-width="10.3194" stroke-miterlimit="22.9256" d="M0-95.0718
				c97.4171-72.4071,221.9633-67.804,320,7.2321C428.2293-4.9294,538.9205,86.1999,640,51.9992
				C756.8818,12.2469,843.3272-119.5237,960-152.995c102.6202-29.2548,210.6199,68.6804,320,150.0667
				c97.4171,72.4071,221.9634,67.804,320-7.2321c108.2294-82.9104,218.9205-174.0397,320-139.839
				c116.8818,39.7523,203.3271,171.5229,320,204.9942c102.6201,29.2548,210.6199-68.6804,320-150.0667"/>
			<path fill="none" stroke="#00A551" stroke-width="10.3194" stroke-miterlimit="22.9256" d="M0-113.0718
				c97.4171-72.4071,221.9633-67.804,320,7.2321C428.2293-22.9294,538.9205,68.1999,640,33.9992
				C756.8818-5.7531,843.3272-137.5237,960-170.995c102.6202-29.2548,210.6199,68.6804,320,150.0667
				c97.4171,72.4071,221.9634,67.804,320-7.2321c108.2294-82.9104,218.9205-174.0397,320-139.839
				c116.8818,39.7523,203.3271,171.5229,320,204.9942c102.6201,29.2548,210.6199-68.6804,320-150.0667"/>
			<path fill="none" stroke="#EC1846" stroke-width="10.3194" stroke-miterlimit="22.9256" d="M0-131.0718
				c97.4171-72.4071,221.9633-67.804,320,7.2321C428.2293-40.9294,538.9205,50.1999,640,15.9992
				C756.8818-23.7531,843.3272-155.5237,960-188.995c102.6202-29.2548,210.6199,68.6804,320,150.0667
				c97.4171,72.4071,221.9634,67.804,320-7.2321c108.2294-82.9104,218.9205-174.0397,320-139.839
				c116.8818,39.7523,203.3271,171.5229,320,204.9942c102.6201,29.2548,210.6199-68.6805,320-150.0667"/>
			<path fill="none" stroke="#007AC1" stroke-width="10.3194" stroke-miterlimit="22.9256" d="M0-149.0718
				c97.4171-72.4071,221.9633-67.804,320,7.2321C428.2293-58.9294,538.9205,32.1999,640-2.0008
				C756.8818-41.7531,843.3272-173.5237,960-206.995c102.6202-29.2548,210.6199,68.6805,320,150.0667
				c97.4171,72.4071,221.9634,67.804,320-7.2321c108.2294-82.9104,218.9205-174.0397,320-139.839
				c116.8818,39.7523,203.3271,171.5229,320,204.9942c102.6201,29.2548,210.6199-68.6804,320-150.0667"/>
			<path fill="none" stroke="#9DCB3B" stroke-width="10.3194" stroke-miterlimit="22.9256" d="M0-167.0718
				c97.4171-72.4071,221.9633-67.804,320,7.2321C428.2293-76.9294,538.9205,14.1999,640-20.0008
				C756.8818-59.7531,843.3272-191.5237,960-224.995c102.6202-29.2548,210.6199,68.6805,320,150.0667
				c97.4171,72.4071,221.9634,67.804,320-7.2321c108.2294-82.9104,218.9205-174.0397,320-139.839
				c116.8818,39.7523,203.3271,171.5229,320,204.9942c102.6201,29.2548,210.6199-68.6805,320-150.0667"/>
			<path fill="none" stroke="#EC027E" stroke-width="10.3194" stroke-miterlimit="22.9256" d="M0-185.0718
				c97.4171-72.4071,221.9633-67.804,320,7.2321C428.2293-94.9294,538.9205-3.8001,640-38.0008
				C756.8818-77.7531,843.3272-209.5237,960-242.995c102.6202-29.2548,210.6199,68.6805,320,150.0667
				c97.4171,72.4071,221.9634,67.804,320-7.2321c108.2294-82.9104,218.9205-174.0397,320-139.839
				c116.8818,39.7523,203.3271,171.5229,320,204.9942c102.6201,29.2548,210.6199-68.6805,320-150.0667"/>
			<path fill="none" stroke="#F9A11B" stroke-width="10.3194" stroke-miterlimit="22.9256" d="M0-203.0718
				c97.4171-72.4071,221.9633-67.804,320,7.2321c108.2293,82.9104,218.9205,174.0397,320,139.839
				C756.8818-95.7531,843.3272-227.5237,960-260.995c102.6202-29.2548,210.6199,68.6804,320,150.0667
				c97.4171,72.4071,221.9634,67.804,320-7.2321c108.2294-82.9104,218.9205-174.0397,320-139.839
				c116.8818,39.7523,203.3271,171.5229,320,204.9942c102.6201,29.2548,210.6199-68.6805,320-150.0667"/>
			<path fill="none" stroke="#009ADE" stroke-width="10.3194" stroke-miterlimit="22.9256" d="M0-221.0718
				c97.4171-72.4071,221.9633-67.804,320,7.2321c108.2293,82.9104,218.9205,174.0397,320,139.839
				c116.8818-39.7523,203.3272-171.5229,320-204.9942c102.6202-29.2548,210.6199,68.6804,320,150.0666
				c97.4171,72.4071,221.9634,67.804,320-7.2321c108.2294-82.9104,218.9205-174.0397,320-139.839
				c116.8818,39.7523,203.3271,171.5229,320,204.9942c102.6201,29.2548,210.6199-68.6804,320-150.0667"/>
			<path fill="none" stroke="#00A67A" stroke-width="10.3194" stroke-miterlimit="22.9256" d="M0-239.0718
				c97.4171-72.4071,221.9633-67.804,320,7.2321c108.2293,82.9104,218.9205,174.0397,320,139.839
				c116.8818-39.7523,203.3272-171.5229,320-204.9942c102.6202-29.2548,210.6199,68.6804,320,150.0666
				c97.4171,72.4071,221.9634,67.804,320-7.2321c108.2294-82.9104,218.9205-174.0397,320-139.839
				c116.8818,39.7523,203.3271,171.5229,320,204.9942c102.6201,29.2548,210.6199-68.6804,320-150.0667"/>
			<path fill="none" stroke="#CE128B" stroke-width="10.3194" stroke-miterlimit="22.9256" d="M0-257.0718
				c97.4171-72.4071,221.9633-67.804,320,7.2321c108.2293,82.9104,218.9205,174.0397,320,139.839
				c116.8818-39.7523,203.3272-171.5229,320-204.9942c102.6202-29.2548,210.6199,68.6804,320,150.0666
				c97.4171,72.4071,221.9634,67.804,320-7.2321c108.2294-82.9104,218.9205-174.0397,320-139.839
				c116.8818,39.7523,203.3271,171.5229,320,204.9942c102.6201,29.2548,210.6199-68.6804,320-150.0667"/>
			<path fill="none" stroke="#FFD700" stroke-width="10.3194" stroke-miterlimit="22.9256" d="M0-275.0718
				c97.4171-72.4071,221.9633-67.804,320,7.2321c108.2293,82.9104,218.9205,174.0397,320,139.839
				c116.8818-39.7523,203.3272-171.5228,320-204.9942c102.6202-29.2548,210.6199,68.6804,320,150.0666
				c97.4171,72.4071,221.9634,67.804,320-7.2321c108.2294-82.9104,218.9205-174.0397,320-139.839
				c116.8818,39.7523,203.3271,171.5229,320,204.9942c102.6201,29.2548,210.6199-68.6804,320-150.0667"/>
			<path fill="none" stroke="#9DCB3B" stroke-width="10.3194" stroke-miterlimit="22.9256" d="M0-293.0718
				c97.4171-72.4071,221.9633-67.804,320,7.2321c108.2293,82.9104,218.9205,174.0397,320,139.839
				c116.8818-39.7523,203.3272-171.5228,320-204.9942c102.6202-29.2548,210.6199,68.6804,320,150.0666
				c97.4171,72.4071,221.9634,67.804,320-7.2321c108.2294-82.9104,218.9205-174.0397,320-139.839
				c116.8818,39.7523,203.3271,171.5229,320,204.9942c102.6201,29.2548,210.6199-68.6804,320-150.0667"/>
			<path fill="none" stroke="#2E3191" stroke-width="10.3194" stroke-miterlimit="22.9256" d="M0-311.0718
				c97.4171-72.4071,221.9633-67.804,320,7.2321c108.2293,82.9104,218.9205,174.0397,320,139.839
				c116.8818-39.7523,203.3272-171.5228,320-204.9942c102.6202-29.2548,210.6199,68.6804,320,150.0666
				c97.4171,72.4071,221.9634,67.804,320-7.2321c108.2294-82.9104,218.9205-174.0397,320-139.839
				c116.8818,39.7523,203.3271,171.5229,320,204.9942c102.6201,29.2548,210.6199-68.6804,320-150.0667"/>
		</g>
		<g>
			<path fill="none" stroke="#00A551" stroke-width="10.3194" stroke-miterlimit="22.9256" d="M0,758.9282
				c97.4171-72.407,221.9633-67.804,320,7.2321C428.2293,849.0707,538.9205,940.2,640,905.9993
				c116.8818-39.7523,203.3272-171.5229,320-204.9943c102.6202-29.2548,210.6199,68.6805,320,150.0667
				c97.4171,72.4071,221.9634,67.8041,320-7.2321c108.2294-82.9104,218.9205-174.0397,320-139.839
				c116.8818,39.7523,203.3271,171.5229,320,204.9943c102.6201,29.2548,210.6199-68.6804,320-150.0667"/>
			<path fill="none" stroke="#00A9A7" stroke-width="10.3194" stroke-miterlimit="22.9256" d="M0,740.9282
				c97.4171-72.407,221.9633-67.804,320,7.2321C428.2293,831.0707,538.9205,922.2,640,887.9993
				c116.8818-39.7523,203.3272-171.5229,320-204.9943c102.6202-29.2548,210.6199,68.6805,320,150.0667
				c97.4171,72.4071,221.9634,67.8041,320-7.2321c108.2294-82.9104,218.9205-174.0397,320-139.839
				c116.8818,39.7523,203.3271,171.5229,320,204.9943c102.6201,29.2548,210.6199-68.6804,320-150.0667"/>
			<path fill="none" stroke="#EC1846" stroke-width="10.3194" stroke-miterlimit="22.9256" d="M0,722.9282
				c97.4171-72.407,221.9633-67.804,320,7.2321C428.2293,813.0707,538.9205,904.2,640,869.9993
				c116.8818-39.7523,203.3272-171.5229,320-204.9943c102.6202-29.2548,210.6199,68.6805,320,150.0667
				c97.4171,72.4071,221.9634,67.8041,320-7.2321c108.2294-82.9104,218.9205-174.0397,320-139.839
				c116.8818,39.7523,203.3271,171.5229,320,204.9943c102.6201,29.2548,210.6199-68.6804,320-150.0667"/>
			<path fill="none" stroke="#9C248E" stroke-width="10.3194" stroke-miterlimit="22.9256" d="M0,704.9282
				c97.4171-72.407,221.9633-67.804,320,7.2321C428.2293,795.0707,538.9205,886.2,640,851.9993
				c116.8818-39.7523,203.3272-171.5229,320-204.9943c102.6202-29.2548,210.6199,68.6805,320,150.0667
				c97.4171,72.4071,221.9634,67.8041,320-7.2321c108.2294-82.9104,218.9205-174.0397,320-139.839
				c116.8818,39.7523,203.3271,171.5229,320,204.9943c102.6201,29.2548,210.6199-68.6804,320-150.0667"/>
			<path fill="none" stroke="#2E3191" stroke-width="10.3194" stroke-miterlimit="22.9256" d="M0,686.9282
				c97.4171-72.407,221.9633-67.804,320,7.2321C428.2293,777.0707,538.9205,868.2,640,833.9993
				c116.8818-39.7523,203.3272-171.5229,320-204.9943c102.6202-29.2548,210.6199,68.6805,320,150.0667
				c97.4171,72.4071,221.9634,67.8041,320-7.2321c108.2294-82.9104,218.9205-174.0397,320-139.839
				c116.8818,39.7523,203.3271,171.5229,320,204.9943c102.6201,29.2548,210.6199-68.6804,320-150.0667"/>
			<path fill="none" stroke="#E1E319" stroke-width="10.3194" stroke-miterlimit="22.9256" d="M0,668.9282
				c97.4171-72.407,221.9633-67.804,320,7.2321C428.2293,759.0707,538.9205,850.2,640,815.9993
				c116.8818-39.7523,203.3272-171.5229,320-204.9943c102.6202-29.2548,210.6199,68.6805,320,150.0667
				c97.4171,72.4071,221.9634,67.8041,320-7.2321c108.2294-82.9104,218.9205-174.0397,320-139.839
				c116.8818,39.7523,203.3271,171.5229,320,204.9943c102.6201,29.2548,210.6199-68.6804,320-150.0667"/>
			<path fill="none" stroke="#00ABD4" stroke-width="10.3194" stroke-miterlimit="22.9256" d="M0,650.9282
				c97.4171-72.407,221.9633-67.804,320,7.2321C428.2293,741.0707,538.9205,832.2,640,797.9993
				c116.8818-39.7523,203.3272-171.5229,320-204.9943c102.6202-29.2548,210.6199,68.6805,320,150.0667
				c97.4171,72.4071,221.9634,67.8041,320-7.2321c108.2294-82.9104,218.9205-174.0397,320-139.839
				c116.8818,39.7523,203.3271,171.5229,320,204.9943c102.6201,29.2548,210.6199-68.6804,320-150.0667"/>
			<path fill="none" stroke="#EC027E" stroke-width="10.3194" stroke-miterlimit="22.9256" d="M0,632.9282
				c97.4171-72.407,221.9633-67.804,320,7.2321C428.2293,723.0707,538.9205,814.2,640,779.9993
				c116.8818-39.7523,203.3272-171.5229,320-204.9943c102.6202-29.2548,210.6199,68.6805,320,150.0667
				c97.4171,72.4071,221.9634,67.8041,320-7.2321c108.2294-82.9104,218.9205-174.0397,320-139.839
				c116.8818,39.7523,203.3271,171.5229,320,204.9943c102.6201,29.2548,210.6199-68.6804,320-150.0667"/>
			<path fill="none" stroke="#47B549" stroke-width="10.3194" stroke-miterlimit="22.9256" d="M0,614.9282
				c97.4171-72.407,221.9633-67.804,320,7.2321C428.2293,705.0707,538.9205,796.2,640,761.9993
				c116.8818-39.7523,203.3272-171.5229,320-204.9943c102.6202-29.2548,210.6199,68.6805,320,150.0667
				c97.4171,72.4071,221.9634,67.8041,320-7.2321c108.2294-82.9104,218.9205-174.0397,320-139.839
				c116.8818,39.7523,203.3271,171.5229,320,204.9943c102.6201,29.2548,210.6199-68.6804,320-150.0667"/>
			<path fill="none" stroke="#9DCB3B" stroke-width="10.3194" stroke-miterlimit="22.9256" d="M0,596.9282
				c97.4171-72.407,221.9633-67.804,320,7.2321C428.2293,687.0707,538.9205,778.2,640,743.9993
				c116.8818-39.7523,203.3272-171.5229,320-204.9943c102.6202-29.2548,210.6199,68.6805,320,150.0667
				c97.4171,72.4071,221.9634,67.8041,320-7.2321c108.2294-82.9104,218.9205-174.0397,320-139.839
				c116.8818,39.7523,203.3271,171.5229,320,204.9943c102.6201,29.2548,210.6199-68.6804,320-150.0667"/>
			<path fill="none" stroke="#00A67A" stroke-width="10.3194" stroke-miterlimit="22.9256" d="M0,578.9282
				c97.4171-72.4071,221.9633-67.804,320,7.2321C428.2293,669.0707,538.9205,760.2,640,725.9993
				c116.8818-39.7523,203.3272-171.5229,320-204.9943c102.6202-29.2548,210.6199,68.6805,320,150.0667
				c97.4171,72.4071,221.9634,67.8041,320-7.2321c108.2294-82.9104,218.9205-174.0397,320-139.839
				c116.8818,39.7523,203.3271,171.5229,320,204.9943c102.6201,29.2548,210.6199-68.6804,320-150.0667"/>
			<path fill="none" stroke="#EC027E" stroke-width="10.3194" stroke-miterlimit="22.9256" d="M0,560.9282
				c97.4171-72.4071,221.9633-67.804,320,7.2321C428.2293,651.0707,538.9205,742.2,640,707.9993
				c116.8818-39.7523,203.3272-171.5229,320-204.9942c102.6202-29.2548,210.6199,68.6805,320,150.0666
				c97.4171,72.4071,221.9634,67.8041,320-7.2321c108.2294-82.9104,218.9205-174.0397,320-139.839
				c116.8818,39.7523,203.3271,171.5229,320,204.9942c102.6201,29.2548,210.6199-68.6804,320-150.0667"/>
			<path fill="none" stroke="#0058A8" stroke-width="10.3194" stroke-miterlimit="22.9256" d="M0,542.9282
				c97.4171-72.4071,221.9633-67.804,320,7.2321C428.2293,633.0707,538.9205,724.2,640,689.9993
				c116.8818-39.7523,203.3272-171.5229,320-204.9942c102.6202-29.2548,210.6199,68.6805,320,150.0666
				c97.4171,72.4071,221.9634,67.8041,320-7.2321c108.2294-82.9104,218.9205-174.0397,320-139.839
				c116.8818,39.7523,203.3271,171.5229,320,204.9942c102.6201,29.2548,210.6199-68.6804,320-150.0667"/>
			<path fill="none" stroke="#9C248E" stroke-width="10.3194" stroke-miterlimit="22.9256" d="M0,524.9282
				c97.4171-72.4071,221.9633-67.804,320,7.2321C428.2293,615.0707,538.9205,706.2,640,671.9993
				c116.8818-39.7523,203.3272-171.5229,320-204.9942c102.6202-29.2548,210.6199,68.6805,320,150.0666
				c97.4171,72.4071,221.9634,67.8041,320-7.2321c108.2294-82.9104,218.9205-174.0397,320-139.839
				c116.8818,39.7523,203.3271,171.5229,320,204.9942c102.6201,29.2548,210.6199-68.6804,320-150.0667"/>
			<path fill="none" stroke="#00A9A7" stroke-width="10.3194" stroke-miterlimit="22.9256" d="M0,506.9282
				c97.4171-72.4071,221.9633-67.804,320,7.2321C428.2293,597.0707,538.9205,688.2,640,653.9993
				c116.8818-39.7523,203.3272-171.5229,320-204.9942c102.6202-29.2548,210.6199,68.6805,320,150.0666
				c97.4171,72.4071,221.9634,67.8041,320-7.2321c108.2294-82.9104,218.9205-174.0397,320-139.839
				c116.8818,39.7523,203.3271,171.5229,320,204.9942c102.6201,29.2548,210.6199-68.6804,320-150.0667"/>
			<path fill="none" stroke="#6B2C90" stroke-width="10.3194" stroke-miterlimit="22.9256" d="M0,488.9282
				c97.4171-72.4071,221.9633-67.804,320,7.2321C428.2293,579.0707,538.9205,670.2,640,635.9993
				c116.8818-39.7523,203.3272-171.5229,320-204.9942c102.6202-29.2548,210.6199,68.6804,320,150.0666
				c97.4171,72.4071,221.9634,67.8041,320-7.2321c108.2294-82.9104,218.9205-174.0397,320-139.839
				c116.8818,39.7523,203.3271,171.5229,320,204.9942c102.6201,29.2548,210.6199-68.6804,320-150.0667"/>
			<path fill="none" stroke="#007AC1" stroke-width="10.3194" stroke-miterlimit="22.9256" d="M0,470.9282
				c97.4171-72.4071,221.9633-67.804,320,7.2321C428.2293,561.0707,538.9205,652.2,640,617.9993
				c116.8818-39.7523,203.3272-171.5229,320-204.9942c102.6202-29.2548,210.6199,68.6804,320,150.0666
				c97.4171,72.4071,221.9634,67.8041,320-7.2321c108.2294-82.9104,218.9205-174.0397,320-139.839
				c116.8818,39.7523,203.3271,171.5229,320,204.9942c102.6201,29.2548,210.6199-68.6804,320-150.0667"/>
			<path fill="none" stroke="#00A9A7" stroke-width="10.3194" stroke-miterlimit="22.9256" d="M0,452.9282
				c97.4171-72.4071,221.9633-67.804,320,7.2321C428.2293,543.0707,538.9205,634.2,640,599.9993
				c116.8818-39.7523,203.3272-171.5229,320-204.9942c102.6202-29.2548,210.6199,68.6804,320,150.0666
				c97.4171,72.4071,221.9634,67.8041,320-7.2321c108.2294-82.9104,218.9205-174.0397,320-139.839
				c116.8818,39.7523,203.3271,171.5229,320,204.9942c102.6201,29.2548,210.6199-68.6804,320-150.0667"/>
			<path fill="none" stroke="#EC1846" stroke-width="10.3194" stroke-miterlimit="22.9256" d="M0,434.9282
				c97.4171-72.4071,221.9633-67.804,320,7.2321C428.2293,525.0707,538.9205,616.2,640,581.9993
				c116.8818-39.7523,203.3272-171.5229,320-204.9942c102.6202-29.2548,210.6199,68.6804,320,150.0666
				c97.4171,72.4071,221.9634,67.8041,320-7.2321c108.2294-82.9104,218.9205-174.0397,320-139.839
				c116.8818,39.7523,203.3271,171.5229,320,204.9942c102.6201,29.2548,210.6199-68.6804,320-150.0667"/>
			<path fill="none" stroke="#00A551" stroke-width="10.3194" stroke-miterlimit="22.9256" d="M0,416.9282
				c97.4171-72.4071,221.9633-67.804,320,7.2321C428.2293,507.0707,538.9205,598.2,640,563.9993
				c116.8818-39.7523,203.3272-171.5229,320-204.9942c102.6202-29.2548,210.6199,68.6804,320,150.0667
				c97.4171,72.4071,221.9634,67.804,320-7.2321c108.2294-82.9104,218.9205-174.0397,320-139.839
				c116.8818,39.7523,203.3271,171.5229,320,204.9942c102.6201,29.2548,210.6199-68.6805,320-150.0667"/>
			<path fill="none" stroke="#EC1846" stroke-width="10.3194" stroke-miterlimit="22.9256" d="M0,398.9282
				c97.4171-72.4071,221.9633-67.804,320,7.2321C428.2293,489.0707,538.9205,580.2,640,545.9993
				c116.8818-39.7523,203.3272-171.5229,320-204.9942c102.6202-29.2548,210.6199,68.6804,320,150.0667
				c97.4171,72.4071,221.9634,67.804,320-7.2321c108.2294-82.9104,218.9205-174.0397,320-139.839
				c116.8818,39.7523,203.3271,171.5229,320,204.9942c102.6201,29.2548,210.6199-68.6805,320-150.0667"/>
			<path fill="none" stroke="#007AC1" stroke-width="10.3194" stroke-miterlimit="22.9256" d="M0,380.9282
				c97.4171-72.4071,221.9633-67.804,320,7.2321C428.2293,471.0707,538.9205,562.2,640,527.9993
				c116.8818-39.7523,203.3272-171.5229,320-204.9942c102.6202-29.2548,210.6199,68.6804,320,150.0667
				c97.4171,72.4071,221.9634,67.804,320-7.2321c108.2294-82.9104,218.9205-174.0397,320-139.839
				c116.8818,39.7523,203.3271,171.5229,320,204.9942c102.6201,29.2548,210.6199-68.6805,320-150.0667"/>
			<path fill="none" stroke="#9DCB3B" stroke-width="10.3194" stroke-miterlimit="22.9256" d="M0,362.9282
				c97.4171-72.4071,221.9633-67.804,320,7.2321C428.2293,453.0707,538.9205,544.2,640,509.9993
				c116.8818-39.7523,203.3272-171.5229,320-204.9942c102.6202-29.2548,210.6199,68.6804,320,150.0667
				c97.4171,72.4071,221.9634,67.804,320-7.2321c108.2294-82.9104,218.9205-174.0397,320-139.839
				c116.8818,39.7523,203.3271,171.5229,320,204.9942c102.6201,29.2548,210.6199-68.6805,320-150.0667"/>
			<path fill="none" stroke="#EC027E" stroke-width="10.3194" stroke-miterlimit="22.9256" d="M0,344.9282
				c97.4171-72.4071,221.9633-67.804,320,7.2321C428.2293,435.0707,538.9205,526.2,640,491.9993
				c116.8818-39.7523,203.3272-171.5229,320-204.9942c102.6202-29.2548,210.6199,68.6804,320,150.0667
				c97.4171,72.407,221.9634,67.804,320-7.2321c108.2294-82.9104,218.9205-174.0397,320-139.839
				c116.8818,39.7523,203.3271,171.5229,320,204.9942c102.6201,29.2548,210.6199-68.6805,320-150.0667"/>
			<path fill="none" stroke="#F9A11B" stroke-width="10.3194" stroke-miterlimit="22.9256" d="M0,326.9282
				c97.4171-72.4071,221.9633-67.804,320,7.2321C428.2293,417.0707,538.9205,508.2,640,473.9993
				c116.8818-39.7523,203.3272-171.5229,320-204.9942c102.6202-29.2548,210.6199,68.6804,320,150.0667
				c97.4171,72.407,221.9634,67.804,320-7.2321c108.2294-82.9104,218.9205-174.0397,320-139.839
				c116.8818,39.7523,203.3271,171.5229,320,204.9942c102.6201,29.2548,210.6199-68.6805,320-150.0667"/>
			<path fill="none" stroke="#009ADE" stroke-width="10.3194" stroke-miterlimit="22.9256" d="M0,308.9282
				c97.4171-72.4071,221.9633-67.804,320,7.2321C428.2293,399.0707,538.9205,490.2,640,455.9993
				c116.8818-39.7523,203.3272-171.5229,320-204.9942c102.6202-29.2548,210.6199,68.6804,320,150.0667
				c97.4171,72.407,221.9634,67.804,320-7.2321c108.2294-82.9104,218.9205-174.0397,320-139.839
				c116.8818,39.7523,203.3271,171.5229,320,204.9942c102.6201,29.2548,210.6199-68.6805,320-150.0667"/>
			<path fill="none" stroke="#00A67A" stroke-width="10.3194" stroke-miterlimit="22.9256" d="M0,290.9282
				c97.4171-72.4071,221.9633-67.804,320,7.2321C428.2293,381.0707,538.9205,472.2,640,437.9993
				c116.8818-39.7523,203.3272-171.5229,320-204.9942c102.6202-29.2548,210.6199,68.6804,320,150.0667
				c97.4171,72.407,221.9634,67.804,320-7.2321c108.2294-82.9104,218.9205-174.0397,320-139.839
				c116.8818,39.7523,203.3271,171.5229,320,204.9942c102.6201,29.2548,210.6199-68.6805,320-150.0667"/>
			<path fill="none" stroke="#CE128B" stroke-width="10.3194" stroke-miterlimit="22.9256" d="M0,272.9282
				c97.4171-72.4071,221.9633-67.804,320,7.2321C428.2293,363.0707,538.9205,454.2,640,419.9993
				c116.8818-39.7523,203.3272-171.5229,320-204.9942c102.6202-29.2548,210.6199,68.6804,320,150.0667
				c97.4171,72.407,221.9634,67.804,320-7.2321c108.2294-82.9104,218.9205-174.0397,320-139.839
				c116.8818,39.7523,203.3271,171.5229,320,204.9942c102.6201,29.2548,210.6199-68.6805,320-150.0667"/>
			<path fill="none" stroke="#FFD700" stroke-width="10.3194" stroke-miterlimit="22.9256" d="M0,254.9282
				c97.4171-72.4071,221.9633-67.804,320,7.2321C428.2293,345.0707,538.9205,436.2,640,401.9993
				c116.8818-39.7523,203.3272-171.5229,320-204.9942c102.6202-29.2548,210.6199,68.6804,320,150.0667
				c97.4171,72.407,221.9634,67.804,320-7.2321c108.2294-82.9104,218.9205-174.0397,320-139.839
				c116.8818,39.7523,203.3271,171.5229,320,204.9942c102.6201,29.2548,210.6199-68.6805,320-150.0667"/>
			<path fill="none" stroke="#9DCB3B" stroke-width="10.3194" stroke-miterlimit="22.9256" d="M0,236.9282
				c97.4171-72.4071,221.9633-67.804,320,7.2321C428.2293,327.0707,538.9205,418.2,640,383.9993
				c116.8818-39.7523,203.3272-171.5229,320-204.9942c102.6202-29.2548,210.6199,68.6805,320,150.0667
				c97.4171,72.407,221.9634,67.804,320-7.2321c108.2294-82.9104,218.9205-174.0397,320-139.839
				c116.8818,39.7523,203.3271,171.5229,320,204.9942c102.6201,29.2548,210.6199-68.6805,320-150.0667"/>
			<path fill="none" stroke="#2E3191" stroke-width="10.3194" stroke-miterlimit="22.9256" d="M0,218.9282
				c97.4171-72.4071,221.9633-67.804,320,7.2321C428.2293,309.0707,538.9205,400.2,640,365.9993
				c116.8818-39.7523,203.3272-171.5229,320-204.9942c102.6202-29.2548,210.6199,68.6805,320,150.0667
				c97.4171,72.407,221.9634,67.804,320-7.2321c108.2294-82.9104,218.9205-174.0397,320-139.839
				c116.8818,39.7523,203.3271,171.5229,320,204.9942c102.6201,29.2548,210.6199-68.6805,320-150.0667"/>
		</g>
		<g>
			<path fill="none" stroke="#00A551" stroke-width="10.3194" stroke-miterlimit="22.9256" d="M0,1288.9282
				c97.4171-72.407,221.9633-67.804,320,7.2322c108.2293,82.9103,218.9205,174.0397,320,139.8389
				c116.8818-39.7522,203.3272-171.5228,320-204.9941c102.6202-29.2549,210.6199,68.6804,320,150.0667
				c97.4171,72.407,221.9634,67.804,320-7.2321c108.2294-82.9104,218.9205-174.0398,320-139.839
				c116.8818,39.7523,203.3271,171.5228,320,204.9943c102.6201,29.2548,210.6199-68.6805,320-150.0668"/>
			<path fill="none" stroke="#00A9A7" stroke-width="10.3194" stroke-miterlimit="22.9256" d="M0,1270.9282
				c97.4171-72.407,221.9633-67.804,320,7.2322c108.2293,82.9103,218.9205,174.0397,320,139.8389
				c116.8818-39.7522,203.3272-171.5228,320-204.9941c102.6202-29.2549,210.6199,68.6804,320,150.0667
				c97.4171,72.407,221.9634,67.804,320-7.2321c108.2294-82.9104,218.9205-174.0398,320-139.839
				c116.8818,39.7523,203.3271,171.5228,320,204.9943c102.6201,29.2548,210.6199-68.6805,320-150.0668"/>
			<path fill="none" stroke="#EC1846" stroke-width="10.3194" stroke-miterlimit="22.9256" d="M0,1252.9282
				c97.4171-72.407,221.9633-67.804,320,7.2322c108.2293,82.9103,218.9205,174.0397,320,139.8389
				c116.8818-39.7522,203.3272-171.5228,320-204.9941c102.6202-29.2549,210.6199,68.6804,320,150.0667
				c97.4171,72.407,221.9634,67.804,320-7.2321c108.2294-82.9104,218.9205-174.0398,320-139.839
				c116.8818,39.7523,203.3271,171.5228,320,204.9943c102.6201,29.2548,210.6199-68.6805,320-150.0668"/>
			<path fill="none" stroke="#9C248E" stroke-width="10.3194" stroke-miterlimit="22.9256" d="M0,1234.9282
				c97.4171-72.407,221.9633-67.804,320,7.2322c108.2293,82.9103,218.9205,174.0397,320,139.8389
				c116.8818-39.7522,203.3272-171.5228,320-204.9941c102.6202-29.2549,210.6199,68.6804,320,150.0667
				c97.4171,72.407,221.9634,67.804,320-7.2321c108.2294-82.9104,218.9205-174.0398,320-139.839
				c116.8818,39.7523,203.3271,171.5228,320,204.9943c102.6201,29.2548,210.6199-68.6805,320-150.0668"/>
			<path fill="none" stroke="#2E3191" stroke-width="10.3194" stroke-miterlimit="22.9256" d="M0,1216.9282
				c97.4171-72.407,221.9633-67.804,320,7.2322c108.2293,82.9103,218.9205,174.0397,320,139.8389
				c116.8818-39.7522,203.3272-171.5228,320-204.9941c102.6202-29.2549,210.6199,68.6804,320,150.0667
				c97.4171,72.407,221.9634,67.804,320-7.2321c108.2294-82.9104,218.9205-174.0398,320-139.839
				c116.8818,39.7523,203.3271,171.5228,320,204.9943c102.6201,29.2548,210.6199-68.6805,320-150.0668"/>
			<path fill="none" stroke="#E1E319" stroke-width="10.3194" stroke-miterlimit="22.9256" d="M0,1198.9282
				c97.4171-72.407,221.9633-67.804,320,7.2322c108.2293,82.9103,218.9205,174.0397,320,139.8389
				c116.8818-39.7522,203.3272-171.5228,320-204.9941c102.6202-29.2549,210.6199,68.6804,320,150.0667
				c97.4171,72.407,221.9634,67.804,320-7.2321c108.2294-82.9104,218.9205-174.0398,320-139.839
				c116.8818,39.7523,203.3271,171.5228,320,204.9943c102.6201,29.2548,210.6199-68.6805,320-150.0668"/>
			<path fill="none" stroke="#00ABD4" stroke-width="10.3194" stroke-miterlimit="22.9256" d="M0,1180.9282
				c97.4171-72.407,221.9633-67.804,320,7.2322c108.2293,82.9103,218.9205,174.0397,320,139.8389
				c116.8818-39.7522,203.3272-171.5228,320-204.9941c102.6202-29.2549,210.6199,68.6804,320,150.0667
				c97.4171,72.407,221.9634,67.804,320-7.2321c108.2294-82.9104,218.9205-174.0398,320-139.839
				c116.8818,39.7523,203.3271,171.5228,320,204.9943c102.6201,29.2548,210.6199-68.6805,320-150.0668"/>
			<path fill="none" stroke="#EC027E" stroke-width="10.3194" stroke-miterlimit="22.9256" d="M0,1162.9282
				c97.4171-72.407,221.9633-67.804,320,7.2322c108.2293,82.9103,218.9205,174.0397,320,139.8389
				c116.8818-39.7522,203.3272-171.5228,320-204.9941c102.6202-29.2549,210.6199,68.6804,320,150.0667
				c97.4171,72.407,221.9634,67.804,320-7.2321c108.2294-82.9104,218.9205-174.0398,320-139.839
				c116.8818,39.7523,203.3271,171.5228,320,204.9943c102.6201,29.2548,210.6199-68.6805,320-150.0668"/>
			<path fill="none" stroke="#47B549" stroke-width="10.3194" stroke-miterlimit="22.9256" d="M0,1144.9282
				c97.4171-72.407,221.9633-67.804,320,7.2322c108.2293,82.9103,218.9205,174.0397,320,139.8389
				c116.8818-39.7522,203.3272-171.5228,320-204.9941c102.6202-29.2549,210.6199,68.6804,320,150.0667
				c97.4171,72.407,221.9634,67.804,320-7.2321c108.2294-82.9104,218.9205-174.0398,320-139.839
				c116.8818,39.7523,203.3271,171.5228,320,204.9943c102.6201,29.2548,210.6199-68.6805,320-150.0668"/>
			<path fill="none" stroke="#9DCB3B" stroke-width="10.3194" stroke-miterlimit="22.9256" d="M0,1126.9282
				c97.4171-72.407,221.9633-67.804,320,7.2322c108.2293,82.9103,218.9205,174.0397,320,139.8389
				c116.8818-39.7522,203.3272-171.5228,320-204.9941c102.6202-29.2549,210.6199,68.6804,320,150.0667
				c97.4171,72.407,221.9634,67.804,320-7.2321c108.2294-82.9104,218.9205-174.0398,320-139.839
				c116.8818,39.7523,203.3271,171.5228,320,204.9943c102.6201,29.2548,210.6199-68.6805,320-150.0668"/>
			<path fill="none" stroke="#00A67A" stroke-width="10.3194" stroke-miterlimit="22.9256" d="M0,1108.9282
				c97.4171-72.407,221.9633-67.804,320,7.2322c108.2293,82.9103,218.9205,174.0397,320,139.8389
				c116.8818-39.7522,203.3272-171.5228,320-204.9941c102.6202-29.2548,210.6199,68.6804,320,150.0667
				c97.4171,72.407,221.9634,67.804,320-7.2321c108.2294-82.9104,218.9205-174.0397,320-139.839
				c116.8818,39.7523,203.3271,171.5228,320,204.9943c102.6201,29.2548,210.6199-68.6805,320-150.0668"/>
			<path fill="none" stroke="#EC027E" stroke-width="10.3194" stroke-miterlimit="22.9256" d="M0,1090.9282
				c97.4171-72.407,221.9633-67.804,320,7.2322c108.2293,82.9103,218.9205,174.0397,320,139.8389
				c116.8818-39.7522,203.3272-171.5228,320-204.9941c102.6202-29.2548,210.6199,68.6804,320,150.0667
				c97.4171,72.407,221.9634,67.804,320-7.2321c108.2294-82.9104,218.9205-174.0397,320-139.839
				c116.8818,39.7523,203.3271,171.5228,320,204.9943c102.6201,29.2548,210.6199-68.6805,320-150.0668"/>
			<path fill="none" stroke="#0058A8" stroke-width="10.3194" stroke-miterlimit="22.9256" d="M0,1072.9282
				c97.4171-72.407,221.9633-67.804,320,7.2322c108.2293,82.9103,218.9205,174.0397,320,139.8389
				c116.8818-39.7522,203.3272-171.5228,320-204.9942c102.6202-29.2548,210.6199,68.6805,320,150.0667
				c97.4171,72.407,221.9634,67.804,320-7.2321c108.2294-82.9104,218.9205-174.0397,320-139.8391
				c116.8818,39.7524,203.3271,171.5229,320,204.9943c102.6201,29.2548,210.6199-68.6805,320-150.0668"/>
			<path fill="none" stroke="#9C248E" stroke-width="10.3194" stroke-miterlimit="22.9256" d="M0,1054.9282
				c97.4171-72.407,221.9633-67.804,320,7.2322c108.2293,82.9103,218.9205,174.0397,320,139.8389
				c116.8818-39.7522,203.3272-171.5228,320-204.9942c102.6202-29.2548,210.6199,68.6805,320,150.0667
				c97.4171,72.407,221.9634,67.804,320-7.2321c108.2294-82.9104,218.9205-174.0397,320-139.8391
				c116.8818,39.7524,203.3271,171.5229,320,204.9943c102.6201,29.2548,210.6199-68.6805,320-150.0668"/>
			<path fill="none" stroke="#00A9A7" stroke-width="10.3194" stroke-miterlimit="22.9256" d="M0,1036.9282
				c97.4171-72.407,221.9633-67.804,320,7.2322c108.2293,82.9103,218.9205,174.0397,320,139.8389
				c116.8818-39.7522,203.3272-171.5228,320-204.9942c102.6202-29.2548,210.6199,68.6805,320,150.0667
				c97.4171,72.407,221.9634,67.804,320-7.2321c108.2294-82.9104,218.9205-174.0397,320-139.8391
				c116.8818,39.7523,203.3271,171.5229,320,204.9943c102.6201,29.2548,210.6199-68.6805,320-150.0668"/>
			<path fill="none" stroke="#6B2C90" stroke-width="10.3194" stroke-miterlimit="22.9256" d="M0,1018.9283
				c97.4171-72.407,221.9633-67.804,320,7.2321c108.2293,82.9103,218.9205,174.0397,320,139.8389
				c116.8818-39.7522,203.3272-171.5228,320-204.9942c102.6202-29.2548,210.6199,68.6805,320,150.0667
				c97.4171,72.407,221.9634,67.804,320-7.2321c108.2294-82.9105,218.9205-174.0397,320-139.8391
				c116.8818,39.7523,203.3271,171.5229,320,204.9943c102.6201,29.2548,210.6199-68.6805,320-150.0667"/>
			<path fill="none" stroke="#007AC1" stroke-width="10.3194" stroke-miterlimit="22.9256" d="M0,1000.9283
				c97.4171-72.407,221.9633-67.804,320,7.2321c108.2293,82.9103,218.9205,174.0397,320,139.8389
				c116.8818-39.7522,203.3272-171.5228,320-204.9942c102.6202-29.2548,210.6199,68.6805,320,150.0667
				c97.4171,72.407,221.9634,67.804,320-7.2321c108.2294-82.9105,218.9205-174.0397,320-139.8391
				c116.8818,39.7523,203.3271,171.5229,320,204.9943c102.6201,29.2548,210.6199-68.6805,320-150.0667"/>
			<path fill="none" stroke="#00A9A7" stroke-width="10.3194" stroke-miterlimit="22.9256" d="M0,982.9283
				c97.4171-72.407,221.9633-67.804,320,7.2321c108.2293,82.9103,218.9205,174.0397,320,139.8389
				c116.8818-39.7522,203.3272-171.5228,320-204.9942c102.6202-29.2548,210.6199,68.6805,320,150.0667
				c97.4171,72.407,221.9634,67.804,320-7.2321c108.2294-82.9105,218.9205-174.0397,320-139.8391
				c116.8818,39.7523,203.3271,171.5229,320,204.9943c102.6201,29.2548,210.6199-68.6805,320-150.0667"/>
			<path fill="none" stroke="#EC1846" stroke-width="10.3194" stroke-miterlimit="22.9256" d="M0,964.9283
				c97.4171-72.407,221.9633-67.804,320,7.2321c108.2293,82.9103,218.9205,174.0397,320,139.8389
				c116.8818-39.7522,203.3272-171.5228,320-204.9942c102.6202-29.2548,210.6199,68.6805,320,150.0667
				c97.4171,72.407,221.9634,67.804,320-7.2321c108.2294-82.9105,218.9205-174.0397,320-139.8391
				c116.8818,39.7523,203.3271,171.5229,320,204.9943c102.6201,29.2548,210.6199-68.6805,320-150.0667"/>
			<path fill="none" stroke="#00A551" stroke-width="10.3194" stroke-miterlimit="22.9256" d="M0,946.9283
				c97.4171-72.407,221.9633-67.804,320,7.2321c108.2293,82.9103,218.9205,174.0397,320,139.8389
				c116.8818-39.7522,203.3272-171.5228,320-204.9942c102.6202-29.2548,210.6199,68.6805,320,150.0667
				c97.4171,72.407,221.9634,67.804,320-7.2321c108.2294-82.9105,218.9205-174.0397,320-139.8391
				c116.8818,39.7523,203.3271,171.5229,320,204.9943c102.6201,29.2548,210.6199-68.6805,320-150.0667"/>
			<path fill="none" stroke="#EC1846" stroke-width="10.3194" stroke-miterlimit="22.9256" d="M0,928.9283
				c97.4171-72.407,221.9633-67.804,320,7.2321c108.2293,82.9104,218.9205,174.0397,320,139.8389
				c116.8818-39.7522,203.3272-171.5228,320-204.9942c102.6202-29.2548,210.6199,68.6805,320,150.0667
				c97.4171,72.407,221.9634,67.804,320-7.2321c108.2294-82.9104,218.9205-174.0397,320-139.839
				c116.8818,39.7523,203.3271,171.5229,320,204.9943c102.6201,29.2548,210.6199-68.6805,320-150.0667"/>
			<path fill="none" stroke="#007AC1" stroke-width="10.3194" stroke-miterlimit="22.9256" d="M0,910.9283
				c97.4171-72.407,221.9633-67.804,320,7.2321c108.2293,82.9104,218.9205,174.0397,320,139.8389
				c116.8818-39.7523,203.3272-171.5228,320-204.9942c102.6202-29.2548,210.6199,68.6805,320,150.0667
				c97.4171,72.407,221.9634,67.804,320-7.2321c108.2294-82.9104,218.9205-174.0397,320-139.839
				c116.8818,39.7523,203.3271,171.5229,320,204.9943c102.6201,29.2548,210.6199-68.6805,320-150.0667"/>
			<path fill="none" stroke="#9DCB3B" stroke-width="10.3194" stroke-miterlimit="22.9256" d="M0,892.9283
				c97.4171-72.407,221.9633-67.804,320,7.2321c108.2293,82.9104,218.9205,174.0397,320,139.8389
				c116.8818-39.7523,203.3272-171.5228,320-204.9942c102.6202-29.2548,210.6199,68.6805,320,150.0667
				c97.4171,72.407,221.9634,67.804,320-7.2321c108.2294-82.9104,218.9205-174.0397,320-139.839
				c116.8818,39.7523,203.3271,171.5229,320,204.9943c102.6201,29.2548,210.6199-68.6805,320-150.0667"/>
			<path fill="none" stroke="#EC027E" stroke-width="10.3194" stroke-miterlimit="22.9256" d="M0,874.9283
				c97.4171-72.407,221.9633-67.804,320,7.2321c108.2293,82.9104,218.9205,174.0397,320,139.839
				c116.8818-39.7523,203.3272-171.5229,320-204.9943c102.6202-29.2548,210.6199,68.6805,320,150.0667
				c97.4171,72.407,221.9634,67.804,320-7.2321c108.2294-82.9104,218.9205-174.0397,320-139.839
				c116.8818,39.7523,203.3271,171.5229,320,204.9943c102.6201,29.2548,210.6199-68.6805,320-150.0667"/>
			<path fill="none" stroke="#F9A11B" stroke-width="10.3194" stroke-miterlimit="22.9256" d="M0,856.9283
				c97.4171-72.407,221.9633-67.804,320,7.2321c108.2293,82.9104,218.9205,174.0397,320,139.839
				c116.8818-39.7523,203.3272-171.5229,320-204.9943c102.6202-29.2548,210.6199,68.6805,320,150.0667
				c97.4171,72.4071,221.9634,67.8041,320-7.2321c108.2294-82.9104,218.9205-174.0397,320-139.839
				c116.8818,39.7523,203.3271,171.5229,320,204.9943c102.6201,29.2548,210.6199-68.6804,320-150.0667"/>
			<path fill="none" stroke="#009ADE" stroke-width="10.3194" stroke-miterlimit="22.9256" d="M0,838.9283
				c97.4171-72.407,221.9633-67.804,320,7.2321c108.2293,82.9104,218.9205,174.0397,320,139.839
				c116.8818-39.7523,203.3272-171.5229,320-204.9943c102.6202-29.2548,210.6199,68.6805,320,150.0667
				c97.4171,72.4071,221.9634,67.8041,320-7.2321c108.2294-82.9104,218.9205-174.0397,320-139.839
				c116.8818,39.7523,203.3271,171.5229,320,204.9943c102.6201,29.2548,210.6199-68.6804,320-150.0667"/>
			<path fill="none" stroke="#00A67A" stroke-width="10.3194" stroke-miterlimit="22.9256" d="M0,820.9283
				c97.4171-72.407,221.9633-67.804,320,7.2321c108.2293,82.9104,218.9205,174.0397,320,139.839
				c116.8818-39.7523,203.3272-171.5229,320-204.9943c102.6202-29.2548,210.6199,68.6805,320,150.0667
				c97.4171,72.4071,221.9634,67.8041,320-7.2321c108.2294-82.9104,218.9205-174.0397,320-139.839
				c116.8818,39.7523,203.3271,171.5229,320,204.9943c102.6201,29.2548,210.6199-68.6804,320-150.0667"/>
			<path fill="none" stroke="#CE128B" stroke-width="10.3194" stroke-miterlimit="22.9256" d="M0,802.9283
				c97.4171-72.407,221.9633-67.804,320,7.2321C428.2293,893.0707,538.9205,984.2,640,949.9993
				c116.8818-39.7523,203.3272-171.5229,320-204.9943c102.6202-29.2548,210.6199,68.6805,320,150.0667
				c97.4171,72.4071,221.9634,67.8041,320-7.2321c108.2294-82.9104,218.9205-174.0397,320-139.839
				c116.8818,39.7523,203.3271,171.5229,320,204.9943c102.6201,29.2548,210.6199-68.6804,320-150.0667"/>
			<path fill="none" stroke="#FFD700" stroke-width="10.3194" stroke-miterlimit="22.9256" d="M0,784.9283
				c97.4171-72.407,221.9633-67.804,320,7.2321C428.2293,875.0707,538.9205,966.2,640,931.9993
				c116.8818-39.7523,203.3272-171.5229,320-204.9943c102.6202-29.2548,210.6199,68.6805,320,150.0667
				c97.4171,72.4071,221.9634,67.8041,320-7.2321c108.2294-82.9104,218.9205-174.0397,320-139.839
				c116.8818,39.7523,203.3271,171.5229,320,204.9943c102.6201,29.2548,210.6199-68.6804,320-150.0667"/>
			<path fill="none" stroke="#9DCB3B" stroke-width="10.3194" stroke-miterlimit="22.9256" d="M0,766.9283
				c97.4171-72.407,221.9633-67.804,320,7.2321C428.2293,857.0707,538.9205,948.2,640,913.9993
				c116.8818-39.7523,203.3272-171.5229,320-204.9943c102.6202-29.2548,210.6199,68.6805,320,150.0667
				c97.4171,72.4071,221.9634,67.8041,320-7.2321c108.2294-82.9104,218.9205-174.0397,320-139.839
				c116.8818,39.7523,203.3271,171.5229,320,204.9943c102.6201,29.2548,210.6199-68.6804,320-150.0667"/>
			<path fill="none" stroke="#2E3191" stroke-width="10.3194" stroke-miterlimit="22.9256" d="M0,748.9283
				c97.4171-72.407,221.9633-67.804,320,7.2321C428.2293,839.0707,538.9205,930.2,640,895.9993
				c116.8818-39.7523,203.3272-171.5229,320-204.9943c102.6202-29.2548,210.6199,68.6805,320,150.0667
				c97.4171,72.4071,221.9634,67.8041,320-7.2321c108.2294-82.9104,218.9205-174.0397,320-139.839
				c116.8818,39.7523,203.3271,171.5229,320,204.9943c102.6201,29.2548,210.6199-68.6804,320-150.0667"/>
		</g>
		<g>
			<path fill="none" stroke="#00A551" stroke-width="10.3194" stroke-miterlimit="22.9256" d="M0,1818.9283
				c97.4171-72.4071,221.9633-67.8041,320,7.2321c108.2293,82.9104,218.9205,174.0397,320,139.839
				c116.8818-39.7523,203.3272-171.5228,320-204.9943c102.6202-29.2548,210.6199,68.6804,320,150.0667
				c97.4171,72.4071,221.9634,67.8041,320-7.2321c108.2294-82.9104,218.9205-174.0397,320-139.839
				c116.8818,39.7523,203.3271,171.5228,320,204.9943c102.6201,29.2548,210.6199-68.6804,320-150.0667"/>
			<path fill="none" stroke="#00A9A7" stroke-width="10.3194" stroke-miterlimit="22.9256" d="M0,1800.9283
				c97.4171-72.4071,221.9633-67.8041,320,7.2321c108.2293,82.9104,218.9205,174.0397,320,139.839
				c116.8818-39.7523,203.3272-171.5228,320-204.9943c102.6202-29.2548,210.6199,68.6804,320,150.0667
				c97.4171,72.4071,221.9634,67.8041,320-7.2321c108.2294-82.9104,218.9205-174.0397,320-139.839
				c116.8818,39.7523,203.3271,171.5228,320,204.9943c102.6201,29.2548,210.6199-68.6804,320-150.0667"/>
			<path fill="none" stroke="#EC1846" stroke-width="10.3194" stroke-miterlimit="22.9256" d="M0,1782.9283
				c97.4171-72.4071,221.9633-67.8041,320,7.2321c108.2293,82.9104,218.9205,174.0397,320,139.839
				c116.8818-39.7523,203.3272-171.5228,320-204.9943c102.6202-29.2548,210.6199,68.6804,320,150.0667
				c97.4171,72.4071,221.9634,67.8041,320-7.2321c108.2294-82.9104,218.9205-174.0397,320-139.839
				c116.8818,39.7523,203.3271,171.5228,320,204.9943c102.6201,29.2548,210.6199-68.6804,320-150.0667"/>
			<path fill="none" stroke="#9C248E" stroke-width="10.3194" stroke-miterlimit="22.9256" d="M0,1764.9283
				c97.4171-72.4071,221.9633-67.8041,320,7.2321c108.2293,82.9104,218.9205,174.0397,320,139.839
				c116.8818-39.7523,203.3272-171.5228,320-204.9943c102.6202-29.2548,210.6199,68.6804,320,150.0667
				c97.4171,72.4071,221.9634,67.8041,320-7.2321c108.2294-82.9104,218.9205-174.0397,320-139.839
				c116.8818,39.7523,203.3271,171.5228,320,204.9943c102.6201,29.2548,210.6199-68.6804,320-150.0667"/>
			<path fill="none" stroke="#2E3191" stroke-width="10.3194" stroke-miterlimit="22.9256" d="M0,1746.9283
				c97.4171-72.4071,221.9633-67.8041,320,7.2321c108.2293,82.9104,218.9205,174.0397,320,139.839
				c116.8818-39.7523,203.3272-171.5228,320-204.9943c102.6202-29.2548,210.6199,68.6804,320,150.0667
				c97.4171,72.4071,221.9634,67.8041,320-7.2321c108.2294-82.9104,218.9205-174.0397,320-139.839
				c116.8818,39.7523,203.3271,171.5228,320,204.9943c102.6201,29.2548,210.6199-68.6804,320-150.0667"/>
			<path fill="none" stroke="#E1E319" stroke-width="10.3194" stroke-miterlimit="22.9256" d="M0,1728.9283
				c97.4171-72.4071,221.9633-67.8041,320,7.2321c108.2293,82.9104,218.9205,174.0397,320,139.839
				c116.8818-39.7523,203.3272-171.5228,320-204.9943c102.6202-29.2548,210.6199,68.6804,320,150.0667
				c97.4171,72.4071,221.9634,67.8041,320-7.2321c108.2294-82.9104,218.9205-174.0397,320-139.839
				c116.8818,39.7523,203.3271,171.5228,320,204.9943c102.6201,29.2548,210.6199-68.6804,320-150.0667"/>
			<path fill="none" stroke="#00ABD4" stroke-width="10.3194" stroke-miterlimit="22.9256" d="M0,1710.9283
				c97.4171-72.4071,221.9633-67.8041,320,7.2321c108.2293,82.9104,218.9205,174.0397,320,139.839
				c116.8818-39.7523,203.3272-171.5228,320-204.9943c102.6202-29.2548,210.6199,68.6804,320,150.0667
				c97.4171,72.4071,221.9634,67.8041,320-7.2321c108.2294-82.9104,218.9205-174.0397,320-139.839
				c116.8818,39.7523,203.3271,171.5228,320,204.9943c102.6201,29.2548,210.6199-68.6804,320-150.0667"/>
			<path fill="none" stroke="#EC027E" stroke-width="10.3194" stroke-miterlimit="22.9256" d="M0,1692.9283
				c97.4171-72.4071,221.9633-67.8041,320,7.2321c108.2293,82.9104,218.9205,174.0397,320,139.839
				c116.8818-39.7523,203.3272-171.5228,320-204.9943c102.6202-29.2548,210.6199,68.6804,320,150.0667
				c97.4171,72.4071,221.9634,67.8041,320-7.2321c108.2294-82.9104,218.9205-174.0397,320-139.839
				c116.8818,39.7523,203.3271,171.5228,320,204.9943c102.6201,29.2548,210.6199-68.6804,320-150.0667"/>
			<path fill="none" stroke="#47B549" stroke-width="10.3194" stroke-miterlimit="22.9256" d="M0,1674.9283
				c97.4171-72.4071,221.9633-67.8041,320,7.2321c108.2293,82.9104,218.9205,174.0397,320,139.839
				c116.8818-39.7523,203.3272-171.5228,320-204.9943c102.6202-29.2548,210.6199,68.6804,320,150.0667
				c97.4171,72.4071,221.9634,67.8041,320-7.2321c108.2294-82.9104,218.9205-174.0397,320-139.839
				c116.8818,39.7523,203.3271,171.5228,320,204.9943c102.6201,29.2548,210.6199-68.6804,320-150.0667"/>
			<path fill="none" stroke="#9DCB3B" stroke-width="10.3194" stroke-miterlimit="22.9256" d="M0,1656.9283
				c97.4171-72.4071,221.9633-67.8041,320,7.2321c108.2293,82.9104,218.9205,174.0397,320,139.839
				c116.8818-39.7523,203.3272-171.5228,320-204.9943c102.6202-29.2548,210.6199,68.6804,320,150.0667
				c97.4171,72.4071,221.9634,67.8041,320-7.2321c108.2294-82.9104,218.9205-174.0397,320-139.839
				c116.8818,39.7523,203.3271,171.5228,320,204.9943c102.6201,29.2548,210.6199-68.6804,320-150.0667"/>
			<path fill="none" stroke="#00A67A" stroke-width="10.3194" stroke-miterlimit="22.9256" d="M0,1638.9283
				c97.4171-72.4071,221.9633-67.8041,320,7.2321c108.2293,82.9104,218.9205,174.0397,320,139.839
				c116.8818-39.7523,203.3272-171.5228,320-204.9943c102.6202-29.2548,210.6199,68.6804,320,150.0667
				c97.4171,72.4071,221.9634,67.8041,320-7.2321c108.2294-82.9104,218.9205-174.0397,320-139.839
				c116.8818,39.7523,203.3271,171.5228,320,204.9943c102.6201,29.2548,210.6199-68.6804,320-150.0667"/>
			<path fill="none" stroke="#EC027E" stroke-width="10.3194" stroke-miterlimit="22.9256" d="M0,1620.9283
				c97.4171-72.4071,221.9633-67.8041,320,7.2321c108.2293,82.9104,218.9205,174.0397,320,139.839
				c116.8818-39.7523,203.3272-171.5228,320-204.9943c102.6202-29.2548,210.6199,68.6804,320,150.0667
				c97.4171,72.4071,221.9634,67.8041,320-7.2321c108.2294-82.9104,218.9205-174.0397,320-139.839
				c116.8818,39.7523,203.3271,171.5228,320,204.9943c102.6201,29.2548,210.6199-68.6804,320-150.0667"/>
			<path fill="none" stroke="#0058A8" stroke-width="10.3194" stroke-miterlimit="22.9256" d="M0,1602.9283
				c97.4171-72.4071,221.9633-67.8041,320,7.2321c108.2293,82.9104,218.9205,174.0397,320,139.839
				c116.8818-39.7523,203.3272-171.5228,320-204.9943c102.6202-29.2548,210.6199,68.6804,320,150.0667
				c97.4171,72.4071,221.9634,67.8041,320-7.2321c108.2294-82.9104,218.9205-174.0397,320-139.839
				c116.8818,39.7523,203.3271,171.5228,320,204.9943c102.6201,29.2548,210.6199-68.6804,320-150.0667"/>
			<path fill="none" stroke="#9C248E" stroke-width="10.3194" stroke-miterlimit="22.9256" d="M0,1584.9283
				c97.4171-72.4071,221.9633-67.8041,320,7.2321c108.2293,82.9104,218.9205,174.0397,320,139.839
				c116.8818-39.7523,203.3272-171.5228,320-204.9943c102.6202-29.2548,210.6199,68.6804,320,150.0667
				c97.4171,72.4071,221.9634,67.8041,320-7.2321c108.2294-82.9104,218.9205-174.0397,320-139.839
				c116.8818,39.7523,203.3271,171.5228,320,204.9943c102.6201,29.2548,210.6199-68.6804,320-150.0667"/>
			<path fill="none" stroke="#00A9A7" stroke-width="10.3194" stroke-miterlimit="22.9256" d="M0,1566.9283
				c97.4171-72.4071,221.9633-67.8041,320,7.2321c108.2293,82.9104,218.9205,174.0397,320,139.839
				c116.8818-39.7523,203.3272-171.5228,320-204.9943c102.6202-29.2548,210.6199,68.6804,320,150.0667
				c97.4171,72.4071,221.9634,67.8041,320-7.2321c108.2294-82.9104,218.9205-174.0397,320-139.839
				c116.8818,39.7523,203.3271,171.5228,320,204.9943c102.6201,29.2548,210.6199-68.6804,320-150.0667"/>
			<path fill="none" stroke="#6B2C90" stroke-width="10.3194" stroke-miterlimit="22.9256" d="M0,1548.9283
				c97.4171-72.4071,221.9633-67.8041,320,7.2321c108.2293,82.9104,218.9205,174.0397,320,139.839
				c116.8818-39.7523,203.3272-171.5228,320-204.9943c102.6202-29.2548,210.6199,68.6804,320,150.0667
				c97.4171,72.4071,221.9634,67.8041,320-7.2321c108.2294-82.9104,218.9205-174.0397,320-139.839
				c116.8818,39.7523,203.3271,171.5228,320,204.9943c102.6201,29.2548,210.6199-68.6804,320-150.0667"/>
			<path fill="none" stroke="#007AC1" stroke-width="10.3194" stroke-miterlimit="22.9256" d="M0,1530.9283
				c97.4171-72.4071,221.9633-67.8041,320,7.2321c108.2293,82.9104,218.9205,174.0397,320,139.839
				c116.8818-39.7523,203.3272-171.5228,320-204.9943c102.6202-29.2548,210.6199,68.6804,320,150.0667
				c97.4171,72.4071,221.9634,67.8041,320-7.2321c108.2294-82.9104,218.9205-174.0397,320-139.839
				c116.8818,39.7523,203.3271,171.5228,320,204.9943c102.6201,29.2548,210.6199-68.6804,320-150.0667"/>
			<path fill="none" stroke="#00A9A7" stroke-width="10.3194" stroke-miterlimit="22.9256" d="M0,1512.9283
				c97.4171-72.4071,221.9633-67.8041,320,7.2321c108.2293,82.9104,218.9205,174.0397,320,139.839
				c116.8818-39.7523,203.3272-171.5228,320-204.9943c102.6202-29.2548,210.6199,68.6804,320,150.0667
				c97.4171,72.4071,221.9634,67.8041,320-7.2321c108.2294-82.9104,218.9205-174.0397,320-139.839
				c116.8818,39.7523,203.3271,171.5228,320,204.9943c102.6201,29.2548,210.6199-68.6804,320-150.0667"/>
			<path fill="none" stroke="#EC1846" stroke-width="10.3194" stroke-miterlimit="22.9256" d="M0,1494.9283
				c97.4171-72.4071,221.9633-67.8041,320,7.2321c108.2293,82.9104,218.9205,174.0397,320,139.839
				c116.8818-39.7523,203.3272-171.5228,320-204.9943c102.6202-29.2548,210.6199,68.6804,320,150.0667
				c97.4171,72.4071,221.9634,67.8041,320-7.2321c108.2294-82.9104,218.9205-174.0397,320-139.839
				c116.8818,39.7523,203.3271,171.5228,320,204.9943c102.6201,29.2548,210.6199-68.6804,320-150.0667"/>
			<path fill="none" stroke="#00A551" stroke-width="10.3194" stroke-miterlimit="22.9256" d="M0,1476.9283
				c97.4171-72.4071,221.9633-67.8041,320,7.2321c108.2293,82.9104,218.9205,174.0397,320,139.839
				c116.8818-39.7523,203.3272-171.5228,320-204.9943c102.6202-29.2548,210.6199,68.6804,320,150.0667
				c97.4171,72.4071,221.9634,67.8041,320-7.2321c108.2294-82.9104,218.9205-174.0397,320-139.839
				c116.8818,39.7523,203.3271,171.5228,320,204.9943c102.6201,29.2548,210.6199-68.6804,320-150.0667"/>
			<path fill="none" stroke="#EC1846" stroke-width="10.3194" stroke-miterlimit="22.9256" d="M0,1458.9283
				c97.4171-72.4071,221.9633-67.8041,320,7.2321c108.2293,82.9104,218.9205,174.0397,320,139.839
				c116.8818-39.7523,203.3272-171.5228,320-204.9943c102.6202-29.2548,210.6199,68.6804,320,150.0667
				c97.4171,72.4071,221.9634,67.8041,320-7.2321c108.2294-82.9104,218.9205-174.0397,320-139.839
				c116.8818,39.7523,203.3271,171.5228,320,204.9943c102.6201,29.2548,210.6199-68.6804,320-150.0667"/>
			<path fill="none" stroke="#007AC1" stroke-width="10.3194" stroke-miterlimit="22.9256" d="M0,1440.9283
				c97.4171-72.4071,221.9633-67.8041,320,7.2321c108.2293,82.9104,218.9205,174.0397,320,139.839
				c116.8818-39.7523,203.3272-171.5228,320-204.9943c102.6202-29.2548,210.6199,68.6804,320,150.0667
				c97.4171,72.4071,221.9634,67.8041,320-7.2321c108.2294-82.9104,218.9205-174.0397,320-139.839
				c116.8818,39.7523,203.3271,171.5228,320,204.9943c102.6201,29.2548,210.6199-68.6804,320-150.0667"/>
			<path fill="none" stroke="#9DCB3B" stroke-width="10.3194" stroke-miterlimit="22.9256" d="M0,1422.9283
				c97.4171-72.4071,221.9633-67.8041,320,7.2321c108.2293,82.9104,218.9205,174.0397,320,139.839
				c116.8818-39.7523,203.3272-171.5228,320-204.9943c102.6202-29.2548,210.6199,68.6804,320,150.0667
				c97.4171,72.4071,221.9634,67.8041,320-7.2321c108.2294-82.9104,218.9205-174.0397,320-139.839
				c116.8818,39.7523,203.3271,171.5228,320,204.9943c102.6201,29.2548,210.6199-68.6804,320-150.0667"/>
			<path fill="none" stroke="#EC027E" stroke-width="10.3194" stroke-miterlimit="22.9256" d="M0,1404.9283
				c97.4171-72.4071,221.9633-67.8041,320,7.2321c108.2293,82.9104,218.9205,174.0397,320,139.839
				c116.8818-39.7523,203.3272-171.5228,320-204.9943c102.6202-29.2548,210.6199,68.6804,320,150.0667
				c97.4171,72.4071,221.9634,67.8041,320-7.2321c108.2294-82.9104,218.9205-174.0397,320-139.839
				c116.8818,39.7523,203.3271,171.5228,320,204.9943c102.6201,29.2548,210.6199-68.6804,320-150.0667"/>
			<path fill="none" stroke="#F9A11B" stroke-width="10.3194" stroke-miterlimit="22.9256" d="M0,1386.9283
				c97.4171-72.4071,221.9633-67.8041,320,7.2321c108.2293,82.9104,218.9205,174.0397,320,139.839
				c116.8818-39.7523,203.3272-171.5228,320-204.9943c102.6202-29.2548,210.6199,68.6804,320,150.0667
				c97.4171,72.4071,221.9634,67.8041,320-7.2321c108.2294-82.9104,218.9205-174.0397,320-139.839
				c116.8818,39.7523,203.3271,171.5228,320,204.9943c102.6201,29.2548,210.6199-68.6804,320-150.0667"/>
			<path fill="none" stroke="#009ADE" stroke-width="10.3194" stroke-miterlimit="22.9256" d="M0,1368.9283
				c97.4171-72.4071,221.9633-67.8041,320,7.2321c108.2293,82.9104,218.9205,174.0397,320,139.839
				c116.8818-39.7523,203.3272-171.5228,320-204.9943c102.6202-29.2548,210.6199,68.6804,320,150.0667
				c97.4171,72.4071,221.9634,67.8041,320-7.2321c108.2294-82.9104,218.9205-174.0397,320-139.839
				c116.8818,39.7523,203.3271,171.5228,320,204.9943c102.6201,29.2548,210.6199-68.6804,320-150.0667"/>
			<path fill="none" stroke="#00A67A" stroke-width="10.3194" stroke-miterlimit="22.9256" d="M0,1350.9283
				c97.4171-72.4071,221.9633-67.8041,320,7.2321c108.2293,82.9104,218.9205,174.0397,320,139.839
				c116.8818-39.7523,203.3272-171.5228,320-204.9943c102.6202-29.2548,210.6199,68.6804,320,150.0667
				c97.4171,72.4071,221.9634,67.8041,320-7.2321c108.2294-82.9104,218.9205-174.0397,320-139.839
				c116.8818,39.7523,203.3271,171.5228,320,204.9943c102.6201,29.2548,210.6199-68.6804,320-150.0667"/>
			<path fill="none" stroke="#CE128B" stroke-width="10.3194" stroke-miterlimit="22.9256" d="M0,1332.9283
				c97.4171-72.4071,221.9633-67.8041,320,7.2321c108.2293,82.9104,218.9205,174.0397,320,139.839
				c116.8818-39.7523,203.3272-171.5228,320-204.9943c102.6202-29.2548,210.6199,68.6804,320,150.0667
				c97.4171,72.4071,221.9634,67.8041,320-7.2321c108.2294-82.9104,218.9205-174.0397,320-139.839
				c116.8818,39.7523,203.3271,171.5228,320,204.9943c102.6201,29.2548,210.6199-68.6804,320-150.0667"/>
			<path fill="none" stroke="#FFD700" stroke-width="10.3194" stroke-miterlimit="22.9256" d="M0,1314.9283
				c97.4171-72.4071,221.9633-67.8041,320,7.2321c108.2293,82.9104,218.9205,174.0397,320,139.839
				c116.8818-39.7523,203.3272-171.5228,320-204.9943c102.6202-29.2548,210.6199,68.6804,320,150.0667
				c97.4171,72.4071,221.9634,67.8041,320-7.2321c108.2294-82.9104,218.9205-174.0397,320-139.839
				c116.8818,39.7523,203.3271,171.5228,320,204.9943c102.6201,29.2548,210.6199-68.6804,320-150.0667"/>
			<path fill="none" stroke="#9DCB3B" stroke-width="10.3194" stroke-miterlimit="22.9256" d="M0,1296.9283
				c97.4171-72.4071,221.9633-67.8041,320,7.2321c108.2293,82.9104,218.9205,174.0397,320,139.839
				c116.8818-39.7523,203.3272-171.5228,320-204.9943c102.6202-29.2548,210.6199,68.6804,320,150.0667
				c97.4171,72.4071,221.9634,67.8041,320-7.2321c108.2294-82.9104,218.9205-174.0397,320-139.839
				c116.8818,39.7523,203.3271,171.5228,320,204.9943c102.6201,29.2548,210.6199-68.6804,320-150.0667"/>
			<path fill="none" stroke="#2E3191" stroke-width="10.3194" stroke-miterlimit="22.9256" d="M0,1278.9283
				c97.4171-72.4071,221.9633-67.8041,320,7.2321c108.2293,82.9104,218.9205,174.0397,320,139.839
				c116.8818-39.7523,203.3272-171.5228,320-204.9943c102.6202-29.2548,210.6199,68.6804,320,150.0667
				c97.4171,72.4071,221.9634,67.8041,320-7.2321c108.2294-82.9104,218.9205-174.0397,320-139.839
				c116.8818,39.7523,203.3271,171.5228,320,204.9943c102.6201,29.2548,210.6199-68.6804,320-150.0667"/>
		</g>
	</g>
</g>
</svg>
